<svg width="8" height="9" viewBox="0 0 8 9" fill="none" xmlns="http://www.w3.org/2000/svg">
<g clip-path="url(#clip0_2734_6230)">
<path d="M7.76288 3.83279C7.24588 2.99079 6.06988 1.57812 4.00588 1.57812C1.94188 1.57812 0.765876 2.99079 0.248876 3.83279C0.0890525 4.09129 0.00439453 4.38921 0.00439453 4.69313C0.00439453 4.99704 0.0890525 5.29496 0.248876 5.55346C0.765876 6.39546 1.94188 7.80812 4.00588 7.80812C6.06988 7.80812 7.24588 6.39546 7.76288 5.55346C7.9227 5.29496 8.00736 4.99704 8.00736 4.69313C8.00736 4.38921 7.9227 4.09129 7.76288 3.83279ZM7.19454 5.20446C6.75054 5.92646 5.74554 7.14146 4.00588 7.14146C2.26621 7.14146 1.26121 5.92646 0.81721 5.20446C0.722255 5.05081 0.67196 4.87375 0.67196 4.69313C0.67196 4.5125 0.722255 4.33544 0.81721 4.18179C1.26121 3.45979 2.26621 2.24479 4.00588 2.24479C5.74554 2.24479 6.75054 3.45846 7.19454 4.18179C7.2895 4.33544 7.33979 4.5125 7.33979 4.69313C7.33979 4.87375 7.2895 5.05081 7.19454 5.20446Z" fill="#171A1F"/>
<path d="M4.00602 3.02686C3.67639 3.02686 3.35415 3.1246 3.08007 3.30774C2.80599 3.49088 2.59237 3.75117 2.46622 4.05572C2.34008 4.36026 2.30707 4.69537 2.37138 5.01867C2.43569 5.34197 2.59442 5.63895 2.82751 5.87203C3.0606 6.10512 3.35757 6.26386 3.68087 6.32816C4.00417 6.39247 4.33929 6.35947 4.64383 6.23332C4.94837 6.10718 5.20867 5.89355 5.39181 5.61947C5.57494 5.34539 5.67269 5.02316 5.67269 4.69352C5.67216 4.25166 5.4964 3.82804 5.18395 3.5156C4.8715 3.20315 4.44789 3.02738 4.00602 3.02686ZM4.00602 5.69352C3.80824 5.69352 3.6149 5.63487 3.45045 5.52499C3.286 5.41511 3.15783 5.25893 3.08214 5.07621C3.00646 4.89348 2.98665 4.69241 3.02524 4.49843C3.06382 4.30445 3.15906 4.12627 3.29892 3.98642C3.43877 3.84656 3.61695 3.75132 3.81093 3.71274C4.00491 3.67415 4.20598 3.69395 4.38871 3.76964C4.57143 3.84533 4.72761 3.9735 4.83749 4.13795C4.94737 4.3024 5.00602 4.49574 5.00602 4.69352C5.00602 4.95874 4.90067 5.21309 4.71313 5.40063C4.52559 5.58817 4.27124 5.69352 4.00602 5.69352Z" fill="#171A1F"/>
</g>
<defs>
<clipPath id="clip0_2734_6230">
<rect width="8" height="8" fill="white" transform="translate(0.00585938 0.693359)"/>
</clipPath>
</defs>
</svg>
