<svg width="16" height="16" viewBox="0 0 16 16" fill="none" xmlns="http://www.w3.org/2000/svg">
<path d="M14.2792 7.49969V13.1527H11.886L11.7651 13.1669C9.54325 13.685 8.07096 14.0586 7.33718 14.2901C6.3625 14.5973 5.99917 14.6724 5.33806 14.7166C4.84361 14.7506 4.28203 14.5602 4.02611 14.2996C3.88473 14.1558 3.77889 13.8604 3.73703 13.4023C3.72836 13.3062 3.69401 13.2142 3.63759 13.136C3.58118 13.0578 3.50476 12.9961 3.41634 12.9576C3.21967 12.8723 3.05617 12.7333 2.91953 12.5311C2.79315 12.3462 2.711 12.0019 2.696 11.5035C2.69336 11.4118 2.66738 11.3224 2.62053 11.2436C2.57367 11.1648 2.50748 11.0993 2.42824 11.0532C1.96854 10.7871 1.74106 10.4869 1.69367 10.1346C1.64154 9.74525 1.76792 9.30688 2.09887 8.80769C2.17652 8.69062 2.20544 8.54787 2.17948 8.40981C2.15351 8.27175 2.07472 8.14925 1.95985 8.06838C1.64312 7.84564 1.46935 7.53602 1.42591 7.09686C1.3564 6.39705 1.80267 5.8797 2.81289 5.77623C3.71264 5.68724 4.62108 5.76298 5.49366 5.99975C5.59265 6.02562 5.69696 6.02268 5.79433 5.99128C5.8917 5.95987 5.97807 5.90131 6.04329 5.82249C6.10851 5.74366 6.14985 5.64785 6.16247 5.54632C6.17508 5.4448 6.15844 5.34178 6.11449 5.24939C5.71956 4.41372 5.49998 3.72418 5.44864 3.19024C5.3815 2.48174 5.545 1.96833 5.92729 1.54497C6.21717 1.22429 6.68081 1.04104 6.85458 1.07896C7.08364 1.12793 7.23292 1.26062 7.42723 1.72506C7.54176 1.99993 7.59705 2.23372 7.69183 2.77951C7.78266 3.29766 7.83242 3.53146 7.93589 3.83792C8.24789 4.76679 9.01326 5.72962 10.0409 6.39389C10.7611 6.85889 11.5416 7.22298 12.3607 7.47599C12.4118 7.49177 12.4651 7.49976 12.5186 7.49969H14.2792ZM14.3124 14.2293C14.5675 14.2364 14.7966 14.1795 14.9885 14.0452C15.2334 13.8738 15.3487 13.6037 15.3511 13.2925L15.3487 7.50838C15.3755 7.20033 15.2847 6.91756 15.0699 6.70746C14.8685 6.51 14.6054 6.4168 14.3274 6.42312H12.6016C11.9034 6.20067 11.2379 5.88674 10.6222 5.48951C9.79442 4.95399 9.18466 4.18625 8.95165 3.49433C8.87187 3.2558 8.82922 3.05833 8.74866 2.5939C8.63966 1.9707 8.57173 1.68083 8.41534 1.30801C8.0915 0.532377 7.66655 0.153246 7.08048 0.0260797C6.50389 -0.0987174 5.66427 0.233812 5.13349 0.821464C4.54505 1.4723 4.28518 2.28665 4.38155 3.29292C4.42262 3.72576 4.54268 4.20994 4.74014 4.74941C4.06578 4.65114 3.38189 4.63628 2.7039 4.70518C1.11866 4.8671 0.228489 5.89944 0.358025 7.20428C0.414894 7.76666 0.618678 8.24452 0.965425 8.6197C0.673967 9.18129 0.557859 9.73656 0.630526 10.2784C0.714251 10.9024 1.06179 11.4221 1.63996 11.8257C1.68498 12.3731 1.81057 12.8099 2.03331 13.1369C2.20881 13.4011 2.4378 13.6255 2.70547 13.7956C2.79078 14.3359 2.97008 14.7585 3.26311 15.0554C3.74887 15.5499 4.61692 15.8445 5.40994 15.7908C6.16267 15.7402 6.60815 15.6486 7.65866 15.3169C8.35136 15.0981 9.78574 14.7348 11.9476 14.2293H14.3132H14.3124ZM12.9689 7.25404C12.9691 7.18338 12.9553 7.11337 12.9284 7.04802C12.9015 6.98267 12.862 6.92328 12.8121 6.87323C12.7622 6.82319 12.7029 6.78349 12.6377 6.7564C12.5724 6.72931 12.5024 6.71536 12.4318 6.71536C12.3612 6.71557 12.2914 6.72967 12.2263 6.75685C12.1612 6.78403 12.1022 6.82377 12.0524 6.87379C12.0027 6.92381 11.9633 6.98314 11.9365 7.04838C11.9097 7.11363 11.896 7.18351 11.8962 7.25404V13.3186C11.8961 13.3891 11.9099 13.4589 11.9368 13.5242C11.9637 13.5894 12.0032 13.6486 12.053 13.6986C12.1028 13.7485 12.1619 13.7882 12.2271 13.8153C12.2922 13.8423 12.362 13.8563 12.4325 13.8564C12.5031 13.8563 12.5729 13.8423 12.638 13.8153C12.7031 13.7882 12.7623 13.7485 12.8121 13.6986C12.8619 13.6486 12.9014 13.5894 12.9283 13.5242C12.9552 13.4589 12.969 13.3891 12.9689 13.3186V7.25404Z" fill="#585C60"/>
</svg>
