<svg width="14" height="19" viewBox="0 0 14 19" fill="none" xmlns="http://www.w3.org/2000/svg">
<path d="M13.8131 4.76484C13.9324 4.89208 14 5.06384 14 5.24408V18.3214C14 18.6968 13.7156 19 13.3636 19H0.636364C0.284375 19 0 18.6968 0 18.3214V0.678571C0 0.303237 0.284375 0 0.636364 0H9.0821C9.25114 0 9.4142 0.0720983 9.53352 0.19933L13.8131 4.76484ZM12.5324 5.5558L8.78977 1.56496V5.5558H12.5324ZM9.41062 12.1562C9.10875 12.1456 8.78778 12.1704 8.42327 12.2189C7.94003 11.9011 7.61469 11.4645 7.38361 10.823L7.40489 10.7301L7.42954 10.6203C7.51506 10.2358 7.56099 9.95528 7.57472 9.6724C7.58506 9.45886 7.57392 9.26186 7.53832 9.07929C7.4727 8.68508 7.21119 8.45458 6.88168 8.44037C6.57443 8.42701 6.29205 8.61001 6.21986 8.89353C6.10233 9.35199 6.17114 9.95528 6.42031 10.9842C6.10293 11.791 5.68352 12.737 5.40213 13.2646C5.02648 13.4711 4.73395 13.659 4.48815 13.8672C4.16401 14.1423 3.96156 14.4249 3.90588 14.7218C3.87883 14.8594 3.9196 15.0393 4.01247 15.1866C4.11787 15.3537 4.27656 15.4623 4.46687 15.478C4.94713 15.5177 5.53736 14.9896 6.18903 13.7973C6.25446 13.7739 6.32366 13.7493 6.40818 13.7188L6.64483 13.6336C6.79457 13.5797 6.90315 13.5411 7.01054 13.504C7.47588 13.3424 7.82787 13.2404 8.14804 13.1823C8.70446 13.5 9.34759 13.7082 9.78071 13.7082C10.1383 13.7082 10.3799 13.5106 10.4672 13.1995C10.5437 12.9264 10.4831 12.6096 10.3184 12.4344C10.1482 12.2561 9.8352 12.1708 9.41062 12.1562ZM4.47901 14.8794V14.8717L4.48159 14.8645C4.51069 14.7843 4.54804 14.7078 4.59295 14.6364C4.67807 14.4968 4.7952 14.3501 4.94037 14.1938C5.01832 14.11 5.09946 14.0284 5.19472 13.9368C5.21599 13.9164 5.35202 13.7873 5.37747 13.7619L5.5996 13.5413L5.43812 13.8155C5.19312 14.232 4.97159 14.5318 4.78187 14.7273C4.71207 14.7994 4.65062 14.8524 4.60091 14.8866C4.5845 14.8983 4.56712 14.9084 4.54901 14.9167C4.54085 14.9203 4.53369 14.9224 4.52653 14.9231C4.51898 14.9241 4.5113 14.923 4.50426 14.9199C4.49678 14.9165 4.49039 14.9109 4.48589 14.9037C4.4814 14.8965 4.479 14.888 4.47901 14.8794ZM6.98349 10.2507L6.93855 10.3355L6.91071 10.2426C6.84906 10.0342 6.80372 9.72011 6.79119 9.43681C6.77688 9.11449 6.80094 8.92109 6.89639 8.92109C7.03043 8.92109 7.09187 9.15011 7.09665 9.4947C7.10102 9.79751 7.05648 10.1126 6.98349 10.2507ZM6.86795 11.4903L6.89838 11.4045L6.93994 11.485C7.17241 11.9354 7.47409 12.3112 7.8058 12.5731L7.87739 12.6295L7.79008 12.6486C7.46534 12.7202 7.16287 12.828 6.74923 13.0059C6.79239 12.9872 6.31929 13.1938 6.19957 13.2427L6.09517 13.2854L6.15085 13.1819C6.39645 12.726 6.62355 12.1784 6.86795 11.4903ZM10.0024 13.1075C9.84614 13.1732 9.50966 13.1145 8.91724 12.8447L8.7669 12.7764L8.92997 12.7637C9.39332 12.727 9.72145 12.7542 9.91276 12.8288C9.99429 12.8606 10.0486 12.9007 10.0726 12.9465C10.0853 12.9682 10.0896 12.9943 10.0845 13.0192C10.0795 13.0442 10.0655 13.0661 10.0456 13.0803C10.033 13.0922 10.0183 13.1014 10.0024 13.1075Z" fill="#EE0505"/>
</svg>
