<svg width="170" height="3" viewBox="0 0 170 3" fill="none" xmlns="http://www.w3.org/2000/svg">
<path d="M48.5 3C49.3284 3 50 2.32843 50 1.5C50 0.671573 49.3284 0 48.5 0H1.5C0.671573 0 0 0.671573 0 1.5C0 2.32843 0.671573 3 1.5 3H48.5Z" fill="#F03729"/>
<path d="M48.5 3C49.3284 3 50 2.32843 50 1.5C50 0.671573 49.3284 0 48.5 0H1.5C0.671573 0 0 0.671573 0 1.5C0 2.32843 0.671573 3 1.5 3H48.5Z" stroke="#F03729"/>
<path fill-rule="evenodd" clip-rule="evenodd" d="M60 1.5C60 2.32843 60.6716 3 61.5 3H108.5C109.328 3 110 2.32843 110 1.5C110 0.671573 109.328 0 108.5 0H61.5C60.6716 0 60 0.671573 60 1.5Z" fill="#F03729"/>
<path fill-rule="evenodd" clip-rule="evenodd" d="M120 1.5C120 2.32843 120.672 3 121.5 3H168.5C169.328 3 170 2.32843 170 1.5C170 0.671573 169.328 0 168.5 0H121.5C120.672 0 120 0.671573 120 1.5Z" fill="#F03729"/>
</svg>
