<svg width="16" height="16" viewBox="0 0 16 16" fill="none" xmlns="http://www.w3.org/2000/svg">
<g clip-path="url(#clip0_679_3776)">
<path d="M14.8032 13.9202L11.0757 10.1926C12.0915 8.95027 12.5909 7.36501 12.4707 5.76474C12.3504 4.16448 11.6197 2.67164 10.4297 1.59502C9.23963 0.518396 7.68131 -0.05964 6.07704 -0.0195281C4.47276 0.0205838 2.94527 0.675775 1.81052 1.81052C0.675775 2.94527 0.0205838 4.47276 -0.0195281 6.07704C-0.05964 7.68131 0.518396 9.23963 1.59502 10.4297C2.67164 11.6197 4.16448 12.3504 5.76474 12.4707C7.36501 12.5909 8.95027 12.0915 10.1926 11.0757L13.9202 14.8032C14.038 14.917 14.1957 14.9799 14.3595 14.9785C14.5232 14.9771 14.6798 14.9114 14.7956 14.7956C14.9114 14.6798 14.9771 14.5232 14.9785 14.3595C14.9799 14.1957 14.917 14.038 14.8032 13.9202ZM6.24337 11.2393C5.25528 11.2393 4.28937 10.9463 3.4678 10.3973C2.64623 9.84835 2.0059 9.0681 1.62777 8.15522C1.24964 7.24234 1.15071 6.23783 1.34347 5.26872C1.53624 4.29961 2.01205 3.40943 2.71074 2.71074C3.40943 2.01205 4.29961 1.53624 5.26872 1.34347C6.23783 1.15071 7.24234 1.24964 8.15522 1.62777C9.0681 2.0059 9.84835 2.64623 10.3973 3.4678C10.9463 4.28937 11.2393 5.25528 11.2393 6.24337C11.2378 7.56791 10.711 8.83777 9.77436 9.77436C8.83777 10.711 7.56791 11.2378 6.24337 11.2393Z" fill="#A5A5A5"/>
</g>
<defs>
<clipPath id="clip0_679_3776">
<rect width="16" height="16" fill="white"/>
</clipPath>
</defs>
</svg>
