<svg width="24" height="24" viewBox="0 0 24 24" fill="none" xmlns="http://www.w3.org/2000/svg">
<path d="M18.9992 12V18C18.9992 18.552 18.5512 19 17.9992 19C17.4473 19 16.9993 18.552 16.9993 18V12C16.9993 11.448 17.4473 11 17.9992 11C18.5512 11 18.9992 11.448 18.9992 12ZM11.5795 6.717L14.6504 17.746C14.8254 18.376 14.3524 19 13.6974 19C13.2544 19 12.8665 18.706 12.7455 18.28L12.1025 16H6.89671L6.25374 18.28C6.13374 18.706 5.74476 19 5.30178 19C4.64781 19 4.17383 18.376 4.34882 17.746L7.43969 6.638C7.58068 6.03 7.98067 5.518 8.53764 5.233C9.10562 4.941 9.75759 4.923 10.3766 5.183C10.9635 5.429 11.4135 6 11.5805 6.718L11.5795 6.717ZM11.5385 14L9.6096 7.165C9.5806 7.051 9.41861 7.051 9.39061 7.165L7.46169 14H11.5385ZM23 10C22.4481 10 22.0001 10.448 22.0001 11V19C22.0001 20.654 20.6541 22 19.0002 22H4.99979C3.34586 22 1.99992 20.654 1.99992 19V5C1.99992 3.346 3.34586 2 4.99979 2H12.9995C13.5514 2 13.9994 1.552 13.9994 1C13.9994 0.448 13.5514 0 12.9995 0H4.99979C2.24291 0 0 2.243 0 5V19C0 21.757 2.24291 24 4.99979 24H18.9992C21.7561 24 23.999 21.757 23.999 19V11C23.999 10.448 23.551 10 22.999 10H23ZM16.1503 5.18L18.0182 5.967L18.7632 7.832C18.9242 8.236 19.3152 8.5 19.7502 8.5C20.1852 8.5 20.5751 8.235 20.7371 7.832L21.4781 5.978L23.332 5.237C23.736 5.076 24 4.685 24 4.25C24 3.815 23.735 3.425 23.332 3.263L21.4781 2.522L20.7371 0.668C20.5741 0.265 20.1832 0 19.7492 0C19.3152 0 18.9242 0.265 18.7622 0.668L18.0252 2.511L16.1853 3.208C15.7793 3.362 15.5074 3.748 15.4994 4.182C15.4914 4.617 15.7493 5.012 16.1493 5.181L16.1503 5.18Z" fill="white"/>
</svg>
