<svg width="40" height="41" viewBox="0 0 40 41" fill="none" xmlns="http://www.w3.org/2000/svg">
<circle opacity="0.05" cx="20" cy="20.1868" r="20" fill="#032466"/>
<g clip-path="url(#clip0_630_14527)">
<path d="M24.5 22.7582H15.5V25.9725H24.5V22.7582Z" stroke="#032466" stroke-linecap="round" stroke-linejoin="round"/>
<path d="M27.0716 27.2582C27.0716 27.5992 26.9361 27.9263 26.695 28.1674C26.4539 28.4084 26.1268 28.544 25.7859 28.544H14.2144C13.8734 28.544 13.5464 28.4084 13.3053 28.1674C13.0642 27.9263 12.9287 27.5992 12.9287 27.2582V13.1154C12.9287 12.7744 13.0642 12.4474 13.3053 12.2062C13.5464 11.9651 13.8734 11.8297 14.2144 11.8297H22.5716L27.0716 16.3297V27.2582Z" stroke="#032466" stroke-linecap="round" stroke-linejoin="round"/>
<path d="M21.9286 14.4011H15.5V17.6154H21.9286V14.4011Z" stroke="#032466" stroke-linecap="round" stroke-linejoin="round"/>
</g>
<defs>
<clipPath id="clip0_630_14527">
<rect width="18" height="18" fill="white" transform="translate(11 11.1868)"/>
</clipPath>
</defs>
</svg>
