<svg width="28" height="27" viewBox="0 0 28 27" fill="none" xmlns="http://www.w3.org/2000/svg">
<path d="M8.59908 1.0271C8.67893 1.02672 8.67893 1.02672 8.7604 1.02633C8.9397 1.02556 9.119 1.0252 9.2983 1.02485C9.42648 1.02439 9.55467 1.02392 9.68285 1.02342C10.1045 1.0219 10.5262 1.02102 10.9479 1.0202C11.0929 1.01989 11.2379 1.01958 11.3829 1.01927C11.9859 1.01802 12.5888 1.01694 13.1918 1.01629C14.0568 1.01535 14.9219 1.01343 15.7869 1.01015C16.3947 1.00792 17.0024 1.00679 17.6102 1.00648C17.9735 1.00627 18.3367 1.00557 18.7 1.0037C19.0416 1.00197 19.3832 1.0016 19.7248 1.00228C19.8503 1.0023 19.9758 1.00181 20.1013 1.0008C20.2724 0.9995 20.4434 0.999969 20.6146 1.00089C20.7104 1.0007 20.8062 1.00051 20.905 1.00031C21.1446 1.03598 21.1446 1.03598 21.3221 1.17056C21.4715 1.36914 21.4752 1.504 21.476 1.73423C21.4767 1.79439 21.4767 1.79439 21.4775 1.85578C21.4788 1.98776 21.4779 2.11967 21.477 2.25166C21.4772 2.34372 21.4774 2.43579 21.4778 2.52786C21.4782 2.72057 21.4776 2.91326 21.4762 3.10598C21.4746 3.35267 21.4755 3.5993 21.4773 3.84599C21.4783 4.03603 21.478 4.22606 21.4772 4.4161C21.4771 4.50704 21.4773 4.59798 21.478 4.68892C21.4787 4.81617 21.4776 4.94333 21.476 5.07057C21.4757 5.14288 21.4755 5.2152 21.4752 5.2897C21.4311 5.51544 21.3513 5.61087 21.1446 5.76881C20.8506 5.83611 20.7006 5.85149 20.4202 5.75078C20.2643 5.65338 20.2643 5.65338 20.191 5.53794C20.191 4.35704 20.191 3.17615 20.191 1.95946C16.5116 1.95946 12.8322 1.95946 9.04131 1.95946C9.04131 3.34987 9.04131 4.74029 9.04131 6.17284C8.82125 6.46142 8.82125 6.46142 8.60119 6.57686C6.42261 6.57686 4.24402 6.57686 1.99942 6.57686C1.99942 12.6718 1.99942 18.7668 1.99942 25.0464C8.00263 25.0464 14.0059 25.0464 20.191 25.0464C20.191 24.3608 20.191 23.6751 20.191 22.9686C19.8279 22.9305 19.4648 22.8924 19.0907 22.8532C17.4205 22.5392 15.9375 21.7221 15.0144 20.58C14.0758 19.3722 13.7591 17.9799 14.1485 16.5908C14.4597 15.5868 15.0278 14.7709 15.9365 14.0224C15.9972 13.9682 15.9972 13.9682 16.0591 13.9128C16.9687 13.1298 18.5588 12.6334 19.8895 12.5693C21.8963 12.5371 23.7183 12.7651 25.2357 13.8965C25.3399 13.9762 25.4429 14.057 25.5458 14.1378C25.6002 14.18 25.6547 14.2222 25.7108 14.2657C26.9658 15.3014 27.36 16.7451 27.3292 18.1314C27.257 19.5776 26.313 20.7923 25.0082 21.769C24.1362 22.3582 22.9735 22.8061 21.8262 22.8844C21.7535 22.8894 21.6808 22.8944 21.6059 22.8996C21.5505 22.9033 21.4951 22.9071 21.438 22.9109C21.4387 22.9609 21.4387 22.9609 21.4395 23.0119C21.4443 23.3593 21.4477 23.7067 21.4501 24.0541C21.4512 24.1837 21.4527 24.3133 21.4546 24.4429C21.4573 24.6293 21.4585 24.8156 21.4595 25.002C21.4606 25.0599 21.4617 25.1177 21.4629 25.1773C21.4631 25.6762 21.4631 25.6762 21.2179 25.9122C21.1017 26.0036 20.9838 25.9774 20.8225 25.9777C20.7175 25.9781 20.7175 25.9781 20.6104 25.9785C20.5326 25.9784 20.4548 25.9784 20.3747 25.9784C20.2518 25.9787 20.2518 25.9787 20.1264 25.9791C19.8496 25.9797 19.5727 25.9799 19.2959 25.9801C19.0984 25.9805 18.9008 25.9809 18.7033 25.9813C18.1087 25.9824 17.5142 25.983 16.9197 25.9835C16.64 25.9838 16.3602 25.9841 16.0805 25.9844C15.151 25.9854 14.2216 25.9862 13.2921 25.9866C13.0507 25.9867 12.8094 25.9869 12.568 25.987C12.4781 25.987 12.4781 25.987 12.3863 25.9871C11.4141 25.9875 10.4419 25.989 9.46968 25.9909C8.47235 25.9928 7.47501 25.9938 6.47767 25.994C5.91738 25.9941 5.3571 25.9946 4.79681 25.9961C4.31972 25.9974 3.84264 25.9978 3.36554 25.9973C3.122 25.997 2.8785 25.9972 2.63496 25.9982C2.37117 25.9992 2.10744 25.9988 1.84364 25.9981C1.72769 25.999 1.72769 25.999 1.6094 26C1.09708 25.9964 1.09708 25.9964 0.853841 25.8708C0.671386 25.6338 0.669886 25.3898 0.66983 25.1181C0.669638 25.0512 0.669447 24.9844 0.66925 24.9156C0.669495 24.8059 0.669495 24.8059 0.669746 24.694C0.669661 24.6153 0.669544 24.5366 0.669399 24.4579C0.669092 24.2418 0.669244 24.0256 0.669471 23.8094C0.669637 23.5763 0.669381 23.3431 0.669179 23.11C0.668853 22.6532 0.668924 22.1964 0.669136 21.7395C0.669302 21.3682 0.669325 20.9969 0.669245 20.6255C0.669234 20.5727 0.669222 20.5198 0.669211 20.4654C0.669187 20.3581 0.669163 20.2508 0.669139 20.1434C0.66893 19.1365 0.66917 18.1296 0.669564 17.1227C0.669892 16.259 0.669836 15.3953 0.669497 14.5316C0.669104 13.5287 0.66895 12.5258 0.669175 11.5229C0.669199 11.4159 0.669222 11.3088 0.669245 11.2018C0.669256 11.1492 0.669267 11.0965 0.669279 11.0423C0.669342 10.6716 0.669235 10.3009 0.669062 9.93016C0.668856 9.4781 0.668913 9.02604 0.669304 8.57398C0.669496 8.3434 0.669572 8.11282 0.669329 7.88224C0.669109 7.67097 0.669232 7.45971 0.669621 7.24844C0.669741 7.1362 0.669503 7.02396 0.66925 6.91172C0.672096 5.90865 0.672096 5.90865 0.916025 5.65924C0.987605 5.61207 1.05918 5.5649 1.13293 5.5163C1.1721 5.48992 1.21126 5.46353 1.25161 5.43635C1.37689 5.35294 1.5042 5.272 1.63265 5.19164C1.67371 5.1659 1.71477 5.14015 1.75708 5.11363C1.9245 5.00928 2.09251 4.90559 2.26165 4.80298C2.58782 4.60446 2.90008 4.39578 3.20974 4.18158C3.59684 3.91403 3.99252 3.65957 4.4003 3.41187C4.72216 3.21495 5.03069 3.00804 5.33698 2.79636C5.72524 2.52807 6.1218 2.27231 6.53076 2.02386C6.90302 1.79646 7.26039 1.55666 7.61524 1.31272C7.97512 1.06619 8.1216 1.0287 8.59908 1.0271ZM7.17998 2.90819C6.73073 3.21378 6.27517 3.51222 5.81378 3.80642C5.34156 4.10835 4.8733 4.41343 4.41 4.72377C4.0769 4.94645 3.73803 5.16293 3.39656 5.37764C3.2406 5.47101 3.2406 5.47101 3.17307 5.59566C4.67387 5.59566 6.17467 5.59566 7.72096 5.59566C7.72096 4.60523 7.72096 3.6148 7.72096 2.59435C7.54006 2.59435 7.31849 2.81322 7.17998 2.90819ZM16.3789 15.083C15.4139 16.0642 15.1038 17.3222 15.2963 18.5348C15.5255 19.5742 16.3479 20.5321 17.3938 21.1717C18.6744 21.8577 20.1382 22.1591 21.6778 21.9493C22.6263 21.7949 23.5032 21.4588 24.2254 20.9485C24.2856 20.9065 24.3459 20.8644 24.4079 20.8211C25.4329 20.0636 26.0329 19.0365 26.0838 17.9328C26.11 16.7482 25.6206 15.6425 24.5907 14.7673C23.5206 13.9155 22.1278 13.5483 20.6403 13.5354C18.9337 13.543 17.5009 14.0633 16.3789 15.083Z" fill="white" stroke="white" stroke-width="0.5"/>
<path d="M23.2714 14.8881C23.465 14.9846 23.4867 15.0466 23.5433 15.2224C23.6063 15.7647 22.8654 16.4485 22.5158 16.901C22.3053 17.1739 22.0986 17.4483 21.8929 17.7234C21.8308 17.8064 21.7686 17.8893 21.7065 17.9722C21.614 18.0958 21.5215 18.2194 21.4294 18.3431C20.677 19.3536 20.677 19.3536 20.3373 19.6209C19.8547 19.6742 19.8547 19.6742 19.6249 19.5567C19.1745 19.2309 18.7403 18.8926 18.3085 18.5516C18.1767 18.4475 18.0444 18.3438 17.9122 18.2401C17.8281 18.1739 17.7441 18.1078 17.6602 18.0416C17.6207 18.0106 17.5812 17.9796 17.5405 17.9477C17.285 17.7454 17.1898 17.6667 17.1602 17.3771C17.1645 17.2066 17.1783 17.1454 17.2931 16.9948C17.5 16.8971 17.6655 16.8649 17.9075 16.875C18.099 16.9158 18.1919 16.9772 18.3378 17.0825C18.3886 17.119 18.4395 17.1556 18.4918 17.1933C18.7542 17.3904 19.0104 17.5919 19.2645 17.7956C19.3673 17.8779 19.4702 17.9602 19.5734 18.0422C19.618 18.0781 19.6627 18.1139 19.7087 18.1508C19.8202 18.2412 19.8202 18.2412 19.9705 18.2934C19.999 18.2327 19.999 18.2327 20.0282 18.1708C20.1253 17.9897 20.2416 17.8267 20.3682 17.6572C20.3929 17.624 20.4176 17.5908 20.4431 17.5566C20.5236 17.4486 20.6046 17.3407 20.6857 17.2329C20.7133 17.196 20.7409 17.1592 20.7694 17.1213C20.9117 16.9316 21.0543 16.7421 21.1972 16.5528C21.3044 16.4106 21.4112 16.2682 21.5175 16.1255C21.6551 15.9411 21.7937 15.7572 21.9327 15.5735C21.9942 15.4905 21.9942 15.4905 22.057 15.4059C22.0958 15.3551 22.1346 15.3043 22.1745 15.252C22.2077 15.2079 22.2409 15.1639 22.275 15.1185C22.5641 14.8323 22.8329 14.7986 23.2714 14.8881Z" fill="white" stroke="white" stroke-width="0.5"/>
<path d="M21.1447 9.92468C21.3515 10.0837 21.4316 10.1789 21.475 10.4057C21.4748 10.4773 21.4747 10.5489 21.4746 10.6227C21.4747 10.6613 21.4748 10.6999 21.4749 10.7397C21.4748 10.821 21.4739 10.9023 21.4724 10.9836C21.4703 11.1075 21.4709 11.2313 21.4718 11.3552C21.4676 12.0948 21.4676 12.0948 21.1447 12.3488C21.0035 12.3626 21.0035 12.3626 20.8284 12.3668C20.7712 12.369 20.714 12.3712 20.6551 12.3734C20.413 12.3385 20.3407 12.2709 20.1912 12.1179C20.1619 11.962 20.1499 11.83 20.1522 11.6742C20.1519 11.6316 20.1516 11.5889 20.1513 11.5449C20.1511 11.4549 20.1517 11.3648 20.1529 11.2748C20.1545 11.1372 20.1529 10.9997 20.151 10.8621C20.1512 10.7745 20.1516 10.6869 20.1522 10.5992C20.1516 10.5582 20.151 10.5172 20.1504 10.475C20.1551 10.2794 20.1739 10.1734 20.3265 10.016C20.6119 9.85109 20.8114 9.84974 21.1447 9.92468Z" fill="white" stroke="white" stroke-width="0.5"/>
<path d="M21.0707 7.38475C21.3081 7.48533 21.3512 7.52742 21.4375 7.73106C21.4482 7.85351 21.4537 7.97627 21.4558 8.09901C21.4577 8.16374 21.4596 8.22847 21.4616 8.29516C21.4351 8.50022 21.3734 8.6062 21.2174 8.76997C20.9876 8.86042 20.731 8.87685 20.4839 8.82769C20.2516 8.66192 20.1947 8.56305 20.1515 8.31703C20.1508 8.23594 20.1516 8.15483 20.1538 8.07376C20.1527 8.03295 20.1516 7.99214 20.1504 7.95009C20.1523 7.75193 20.1725 7.63529 20.3212 7.47313C20.5715 7.33717 20.7774 7.34495 21.0707 7.38475Z" fill="white" stroke="white" stroke-width="0.5"/>
</svg>
