<svg width="13" height="14" viewBox="0 0 13 14" fill="none" xmlns="http://www.w3.org/2000/svg">
<path d="M0.985547 9.37101C1.01686 9.37574 3.8447 9.85315 5.90915 9.93941V12.9232C3.84529 13.0095 1.01686 13.4875 0.985547 13.4922C0.715526 13.5335 0.449641 13.4053 0.342696 13.1849C0.329106 13.156 0 12.4682 0 11.4319C0 10.3955 0.328516 9.7078 0.342696 9.67885C0.450232 9.45846 0.715526 9.32906 0.985547 9.37101ZM10.636 6.45635C9.4141 6.9828 8.12426 7.35858 6.77239 7.56892C6.58863 7.59728 6.41315 7.59728 6.23116 7.56892C4.87692 7.35858 3.58649 6.98221 2.36401 6.45576V8.38548C3.54927 8.55564 5.28993 8.7713 6.5 8.7713C7.71007 8.7713 9.46137 8.55446 10.636 8.38607V6.45635ZM12.9994 3.45425C12.9923 3.27049 12.899 3.07669 12.7477 2.97034C10.9084 1.69824 8.84511 0.853328 6.59099 0.50709C6.53013 0.497637 6.46987 0.497637 6.40901 0.50709C4.15726 0.856873 2.08572 1.68584 0.252295 2.97034C0.101036 3.07669 0.00768111 3.27049 0.000590848 3.45425C0.00768111 3.638 0.101036 3.8318 0.252295 3.93815C2.08572 5.22266 4.15726 6.05162 6.40901 6.4014C6.46987 6.41086 6.53013 6.41086 6.59099 6.4014C8.24125 6.14498 9.79343 5.62857 11.2268 4.86697V6.70392C11.2268 7.19373 11.6233 7.59019 12.1131 7.59019C12.6029 7.59019 12.9994 7.19373 12.9994 6.70392C13.0012 6.55916 12.997 3.58305 12.9994 3.45425ZM12.0145 9.37101C11.9831 9.37574 9.1553 9.85315 7.09086 9.93941V12.9232C9.15471 13.0095 11.9831 13.4875 12.0145 13.4922C12.2715 13.5335 12.5521 13.4077 12.6573 13.1849C12.6709 13.156 13 12.4682 13 11.4319C13 10.3955 12.6715 9.7078 12.6573 9.67885C12.5498 9.45846 12.2815 9.32847 12.0145 9.37101Z" fill="#6C7278"/>
</svg>
