<svg width="14" height="15" viewBox="0 0 14 15" fill="none" xmlns="http://www.w3.org/2000/svg">
<path d="M7.24658 10.5756V6.88477" stroke="#6C7278" stroke-width="1.04556" stroke-linecap="round"/>
<path d="M7.24648 4.42427C7.58622 4.42427 7.86162 4.69967 7.86162 5.0394C7.86162 5.37913 7.58622 5.65454 7.24648 5.65454C6.90675 5.65454 6.63135 5.37913 6.63135 5.0394C6.63135 4.69967 6.90675 4.42427 7.24648 4.42427Z" fill="#6C7278"/>
<path d="M4.1709 2.17158C5.07568 1.64819 6.12617 1.34863 7.24658 1.34863C10.6439 1.34863 13.3979 4.10269 13.3979 7.5C13.3979 10.8973 10.6439 13.6514 7.24658 13.6514C3.84927 13.6514 1.09521 10.8973 1.09521 7.5C1.09521 6.37959 1.39477 5.3291 1.91816 4.42432" stroke="#6C7278" stroke-width="1.04556" stroke-linecap="round"/>
</svg>
