<svg width="26" height="25" viewBox="0 0 26 25" fill="none" xmlns="http://www.w3.org/2000/svg">
<path fill-rule="evenodd" clip-rule="evenodd" d="M6.83747 16.9091C6.64427 16.9091 6.44985 16.8475 6.28562 16.7219C5.88954 16.4164 5.81468 15.8477 6.12019 15.4516L9.7344 10.7542C9.88172 10.5622 10.1003 10.4378 10.3394 10.4076C10.5833 10.3762 10.8224 10.4439 11.012 10.5948L14.4173 13.2695L17.3963 9.42589C17.703 9.02861 18.2706 8.95495 18.6667 9.26408C19.0628 9.5708 19.1352 10.1396 18.8285 10.5344L15.2904 15.099C15.143 15.2898 14.9257 15.4142 14.6866 15.4431C14.4451 15.4757 14.206 15.4057 14.0152 15.2572L10.6123 12.5836L7.55597 16.5553C7.37725 16.7871 7.10917 16.9091 6.83747 16.9091Z" fill="white"/>
<mask id="mask0_630_13207" style="mask-type:luminance" maskUnits="userSpaceOnUse" x="19" y="0" width="7" height="7">
<path fill-rule="evenodd" clip-rule="evenodd" d="M19.0088 0H25.462V6.45426H19.0088V0Z" fill="white"/>
</mask>
<g mask="url(#mask0_630_13207)">
<path fill-rule="evenodd" clip-rule="evenodd" d="M22.2354 1.81131C21.4554 1.81131 20.8202 2.44528 20.8202 3.22657C20.8202 4.00665 21.4554 4.64303 22.2354 4.64303C23.0155 4.64303 23.6507 4.00665 23.6507 3.22657C23.6507 2.44528 23.0155 1.81131 22.2354 1.81131ZM22.2354 6.45438C20.4566 6.45438 19.0088 5.00652 19.0088 3.22659C19.0088 1.44665 20.4566 0 22.2354 0C24.0153 0 25.462 1.44665 25.462 3.22659C25.462 5.00652 24.0153 6.45438 22.2354 6.45438Z" fill="white"/>
</g>
<mask id="mask1_630_13207" style="mask-type:luminance" maskUnits="userSpaceOnUse" x="0" y="1" width="25" height="24">
<path fill-rule="evenodd" clip-rule="evenodd" d="M0.538574 1.01685H24.5229V25.0001H0.538574V1.01685Z" fill="white"/>
</mask>
<g mask="url(#mask1_630_13207)">
<path fill-rule="evenodd" clip-rule="evenodd" d="M17.7257 25.0001H7.3359C3.27006 25.0001 0.538574 22.1442 0.538574 17.8936V8.13417C0.538574 3.87754 3.27006 1.01685 7.3359 1.01685H16.1124C16.6123 1.01685 17.0181 1.42258 17.0181 1.92251C17.0181 2.42244 16.6123 2.82818 16.1124 2.82818H7.3359C4.30735 2.82818 2.34991 4.91 2.34991 8.13417V17.8936C2.34991 21.1601 4.26026 23.1888 7.3359 23.1888H17.7257C20.7542 23.1888 22.7117 21.1106 22.7117 17.8936V9.39365C22.7117 8.89372 23.1174 8.48799 23.6174 8.48799C24.1173 8.48799 24.523 8.89372 24.523 9.39365V17.8936C24.523 22.1442 21.7915 25.0001 17.7257 25.0001Z" fill="white"/>
</g>
</svg>
