<svg width="8" height="8" viewBox="0 0 8 8" fill="none" xmlns="http://www.w3.org/2000/svg">
<g clip-path="url(#clip0_630_18030)">
<path d="M7.75946 3.13968C7.24246 2.29768 6.06646 0.88501 4.00246 0.88501C1.93846 0.88501 0.762459 2.29768 0.245458 3.13968C0.0856345 3.39818 0.000976563 3.69609 0.000976562 4.00001C0.000976562 4.30393 0.0856345 4.60184 0.245458 4.86034C0.762459 5.70234 1.93846 7.11501 4.00246 7.11501C6.06646 7.11501 7.24246 5.70234 7.75946 4.86034C7.91928 4.60184 8.00394 4.30393 8.00394 4.00001C8.00394 3.69609 7.91928 3.39818 7.75946 3.13968ZM7.19113 4.51134C6.74713 5.23334 5.74213 6.44834 4.00246 6.44834C2.26279 6.44834 1.25779 5.23334 0.813792 4.51134C0.718837 4.35769 0.668542 4.18063 0.668542 4.00001C0.668542 3.81939 0.718837 3.64233 0.813792 3.48868C1.25779 2.76668 2.26279 1.55168 4.00246 1.55168C5.74213 1.55168 6.74713 2.76534 7.19113 3.48868C7.28608 3.64233 7.33638 3.81939 7.33638 4.00001C7.33638 4.18063 7.28608 4.35769 7.19113 4.51134Z" fill="#171A1F"/>
<path d="M4.0026 2.33325C3.67297 2.33325 3.35074 2.431 3.07665 2.61414C2.80257 2.79727 2.58895 3.05757 2.46281 3.36211C2.33666 3.66666 2.30365 4.00177 2.36796 4.32507C2.43227 4.64837 2.59101 4.94534 2.82409 5.17843C3.05718 5.41152 3.35415 5.57025 3.67745 5.63456C4.00076 5.69887 4.33587 5.66586 4.64041 5.53972C4.94495 5.41357 5.20525 5.19995 5.38839 4.92587C5.57152 4.65179 5.66927 4.32955 5.66927 3.99992C5.66874 3.55805 5.49298 3.13444 5.18053 2.82199C4.86809 2.50955 4.44447 2.33378 4.0026 2.33325ZM4.0026 4.99992C3.80482 4.99992 3.61148 4.94127 3.44703 4.83139C3.28259 4.72151 3.15441 4.56533 3.07873 4.3826C3.00304 4.19988 2.98323 3.99881 3.02182 3.80483C3.0604 3.61085 3.15565 3.43266 3.2955 3.29281C3.43535 3.15296 3.61353 3.05772 3.80751 3.01913C4.0015 2.98055 4.20256 3.00035 4.38529 3.07604C4.56801 3.15173 4.72419 3.2799 4.83407 3.44435C4.94396 3.6088 5.0026 3.80214 5.0026 3.99992C5.0026 4.26514 4.89725 4.51949 4.70971 4.70703C4.52218 4.89456 4.26782 4.99992 4.0026 4.99992Z" fill="#171A1F"/>
</g>
<defs>
<clipPath id="clip0_630_18030">
<rect width="8" height="8" fill="white" transform="translate(0.00292969)"/>
</clipPath>
</defs>
</svg>
