<svg width="14" height="14" viewBox="0 0 14 14" fill="none" xmlns="http://www.w3.org/2000/svg">
<path d="M14 6.70847C13.9997 6.30605 13.8805 5.91269 13.6574 5.57778C13.4343 5.24286 13.1172 4.98132 12.746 4.82599C12.5091 3.47356 11.8028 2.248 10.7515 1.36485C9.70024 0.48171 8.37119 -0.00244141 6.99818 -0.00244141C5.62516 -0.00244141 4.29611 0.48171 3.24481 1.36485C2.19351 2.248 1.48729 3.47356 1.25036 4.82599C0.826721 5.00422 0.475578 5.32013 0.253716 5.72265C0.0318537 6.12516 -0.0477561 6.59074 0.0277594 7.04411C0.103275 7.49747 0.329501 7.91211 0.669856 8.22097C1.01021 8.52984 1.4448 8.71488 1.90334 8.74617C2.20473 9.38575 2.61348 9.96897 3.11184 10.4705C2.3816 11.2679 1.91816 12.2731 1.78605 13.3462C1.77571 13.4282 1.78294 13.5116 1.80726 13.5907C1.83159 13.6697 1.87245 13.7427 1.92713 13.8048C1.98182 13.8669 2.04908 13.9167 2.12446 13.9508C2.19983 13.9849 2.2816 14.0025 2.36433 14.0026H11.6186C11.7013 14.0026 11.7831 13.985 11.8585 13.951C11.9339 13.9169 12.0012 13.8673 12.0559 13.8052C12.1107 13.7432 12.1516 13.6703 12.176 13.5912C12.2004 13.5122 12.2077 13.4288 12.1975 13.3467C12.0663 12.2764 11.6052 11.2734 10.8781 10.4769C11.3792 9.97386 11.7902 9.38842 12.093 8.74617C12.6101 8.71182 13.0948 8.4822 13.4488 8.10384C13.8029 7.72548 14 7.22667 14 6.70847ZM11.8106 7.56801C11.6745 7.54308 11.5339 7.56767 11.4144 7.63735C11.2948 7.70702 11.2042 7.81718 11.1588 7.94789C10.6243 9.46391 8.82405 11.085 6.99759 11.085C5.17113 11.085 3.37093 9.46275 2.83641 7.94673C2.79092 7.81608 2.70023 7.706 2.5807 7.63634C2.46118 7.56668 2.3207 7.54203 2.1846 7.56685C2.13611 7.57635 2.08694 7.58201 2.03755 7.58377C1.82094 7.58118 1.61298 7.49836 1.45389 7.35132C1.29481 7.20427 1.1959 7.00347 1.1763 6.78772C1.1567 6.57198 1.2178 6.35663 1.34778 6.18333C1.47777 6.01003 1.6674 5.89109 1.88 5.8495C2.00407 5.82701 2.11751 5.76494 2.20335 5.67258C2.28919 5.58022 2.3428 5.46254 2.35616 5.33716C2.44096 4.52721 2.73705 3.75374 3.2148 3.09421C3.69255 2.43469 4.33518 1.91224 5.07835 1.5792C4.95543 1.89188 4.91078 2.22985 4.94825 2.56372C4.98573 2.89758 5.10422 3.21724 5.2934 3.49488C5.48258 3.77252 5.73672 3.99974 6.03374 4.15676C6.33075 4.31379 6.66163 4.39587 6.99759 4.39587C7.33356 4.39587 7.66444 4.31379 7.96145 4.15676C8.25846 3.99974 8.51261 3.77252 8.70179 3.49488C8.89097 3.21724 9.00945 2.89758 9.04693 2.56372C9.08441 2.22985 9.03975 1.89188 8.91683 1.5792C9.66 1.91224 10.3026 2.43469 10.7804 3.09421C11.2581 3.75374 11.5542 4.52721 11.639 5.33716C11.6524 5.46254 11.706 5.58022 11.7918 5.67258C11.8777 5.76494 11.9911 5.82701 12.1152 5.8495C12.3278 5.89109 12.5174 6.01003 12.6474 6.18333C12.7774 6.35663 12.8385 6.57198 12.8189 6.78772C12.7993 7.00347 12.7004 7.20427 12.5413 7.35132C12.3822 7.49836 12.1742 7.58118 11.9576 7.58377C11.9083 7.5824 11.8591 7.57713 11.8106 7.56801Z" fill="#6C7278"/>
<path d="M5.53839 7.58385C6.0218 7.58385 6.41369 7.19197 6.41369 6.70855C6.41369 6.22514 6.0218 5.83325 5.53839 5.83325C5.05497 5.83325 4.66309 6.22514 4.66309 6.70855C4.66309 7.19197 5.05497 7.58385 5.53839 7.58385Z" fill="#6C7278"/>
<path d="M8.45636 7.58385C8.93977 7.58385 9.33166 7.19197 9.33166 6.70855C9.33166 6.22514 8.93977 5.83325 8.45636 5.83325C7.97294 5.83325 7.58105 6.22514 7.58105 6.70855C7.58105 7.19197 7.97294 7.58385 8.45636 7.58385Z" fill="#6C7278"/>
</svg>
