<svg width="19" height="19" viewBox="0 0 19 19" fill="none" xmlns="http://www.w3.org/2000/svg">
<path d="M6 7.48486C6.82843 7.48486 7.5 6.81329 7.5 5.98486C7.5 5.15644 6.82843 4.48486 6 4.48486C5.17157 4.48486 4.5 5.15644 4.5 5.98486C4.5 6.81329 5.17157 7.48486 6 7.48486Z" fill="#4C9EEB"/>
<path fill-rule="evenodd" clip-rule="evenodd" d="M18 2.48486V11.9242L18.0303 11.9545L18 11.9849V16.4849C18 17.5894 17.1046 18.4849 16 18.4849H13L12.9697 18.5152L12.9393 18.4849H2C0.89543 18.4849 0 17.5894 0 16.4849V2.48486C0 1.38029 0.895431 0.484863 2 0.484863H16C17.1046 0.484863 18 1.38029 18 2.48486ZM2 1.98486H16C16.2761 1.98486 16.5 2.20872 16.5 2.48486V10.4242L14.2012 8.1254C13.5431 7.46726 12.4849 7.43943 11.7931 8.06207L8.02718 11.4514L7.23744 10.6616C6.55402 9.97822 5.44598 9.97822 4.76256 10.6616L1.5 13.9242V2.48486C1.5 2.20872 1.72386 1.98486 2 1.98486ZM13.1405 9.18606L16.5 12.5455V16.4849C16.5 16.761 16.2761 16.9849 16 16.9849H13.5607L9.08931 12.5135L12.7965 9.17702C12.8954 9.08807 13.0465 9.09204 13.1405 9.18606ZM1.5 15.9849V16.4849C1.5 16.761 1.72386 16.9849 2 16.9849H11.4393L6.17678 11.7223C6.07915 11.6247 5.92085 11.6247 5.82322 11.7223L1.53033 16.0152L1.5 15.9849Z" fill="#4C9EEB"/>
</svg>
