<svg width="26" height="24" viewBox="0 0 26 24" fill="none" xmlns="http://www.w3.org/2000/svg">
<path d="M19.9098 4H18.764C18.5222 2.87141 17.8826 1.85735 16.9528 1.12872C16.023 0.40009 14.86 0.00145452 13.6598 0L11.5765 0C10.3763 0.00145452 9.21329 0.40009 8.28353 1.12872C7.35377 1.85735 6.7141 2.87141 6.47233 4H5.3265C3.94567 4.00159 2.62187 4.52888 1.64548 5.46622C0.669083 6.40356 0.119818 7.67441 0.118164 9L0.118164 19C0.119818 20.3256 0.669083 21.5964 1.64548 22.5338C2.62187 23.4711 3.94567 23.9984 5.3265 24H19.9098C21.2907 23.9984 22.6145 23.4711 23.5909 22.5338C24.5672 21.5964 25.1165 20.3256 25.1182 19V9C25.1165 7.67441 24.5672 6.40356 23.5909 5.46622C22.6145 4.52888 21.2907 4.00159 19.9098 4ZM11.5765 2H13.6598C14.3039 2.00256 14.9313 2.19608 15.4564 2.55409C15.9815 2.91209 16.3785 3.41709 16.5932 4H8.64316C8.85783 3.41709 9.25486 2.91209 9.77994 2.55409C10.305 2.19608 10.9325 2.00256 11.5765 2ZM5.3265 6H19.9098C20.7386 6 21.5335 6.31607 22.1195 6.87868C22.7056 7.44129 23.0348 8.20435 23.0348 9V12H2.2015V9C2.2015 8.20435 2.53074 7.44129 3.11679 6.87868C3.70284 6.31607 4.4977 6 5.3265 6ZM19.9098 22H5.3265C4.4977 22 3.70284 21.6839 3.11679 21.1213C2.53074 20.5587 2.2015 19.7956 2.2015 19V14H11.5765V15C11.5765 15.2652 11.6862 15.5196 11.8816 15.7071C12.0769 15.8946 12.3419 16 12.6182 16C12.8944 16 13.1594 15.8946 13.3547 15.7071C13.5501 15.5196 13.6598 15.2652 13.6598 15V14H23.0348V19C23.0348 19.7956 22.7056 20.5587 22.1195 21.1213C21.5335 21.6839 20.7386 22 19.9098 22Z" fill="white"/>
</svg>
