<svg width="40" height="41" viewBox="0 0 40 41" fill="none" xmlns="http://www.w3.org/2000/svg">
<circle opacity="0.05" cx="20" cy="20.1868" r="20" fill="#032466"/>
<g clip-path="url(#clip0_630_14564)">
<path d="M17.4717 12.4011L18.0859 10.8154C18.1895 10.5469 18.3718 10.316 18.6089 10.1528C18.8459 9.98969 19.1267 9.90195 19.4145 9.9011H20.5859C20.8737 9.90195 21.1545 9.98969 21.3916 10.1528C21.6287 10.316 21.8109 10.5469 21.9145 10.8154L22.5288 12.4011L24.6145 13.6011L26.3002 13.344C26.5809 13.3059 26.8666 13.3521 27.121 13.4767C27.3753 13.6013 27.5869 13.7988 27.7287 14.044L28.3002 15.044C28.4466 15.293 28.5142 15.5806 28.4937 15.8688C28.4733 16.157 28.366 16.4323 28.1859 16.6582L27.143 17.9868V20.3868L28.2145 21.7154C28.3946 21.9413 28.5019 22.2166 28.5223 22.5048C28.5427 22.793 28.4752 23.0806 28.3287 23.3297L27.7573 24.3297C27.6155 24.5748 27.4039 24.7722 27.1496 24.897C26.8952 25.0215 26.6095 25.0678 26.3287 25.0297L24.643 24.7725L22.5574 25.9725L21.9431 27.5582C21.8395 27.8267 21.6572 28.0577 21.4202 28.2208C21.1831 28.384 20.9023 28.4717 20.6145 28.4725H19.4145C19.1267 28.4717 18.8459 28.384 18.6089 28.2208C18.3718 28.0577 18.1895 27.8267 18.0859 27.5582L17.4717 25.9725L15.3859 24.7725L13.7002 25.0297C13.4195 25.0678 13.1339 25.0215 12.8795 24.897C12.6251 24.7722 12.4136 24.5748 12.2717 24.3297L11.7002 23.3297C11.5538 23.0806 11.4863 22.793 11.5067 22.5048C11.5271 22.2166 11.6345 21.9413 11.8145 21.7154L12.8574 20.3868V17.9868L11.7859 16.6582C11.6059 16.4323 11.4986 16.157 11.4782 15.8688C11.4578 15.5806 11.5252 15.293 11.6717 15.044L12.2431 14.044C12.385 13.7988 12.5966 13.6013 12.8509 13.4767C13.1053 13.3521 13.391 13.3059 13.6717 13.344L15.3574 13.6011L17.4717 12.4011ZM17.1431 19.1868C17.1431 19.7519 17.3107 20.3043 17.6246 20.7742C17.9386 21.244 18.3848 21.6102 18.9068 21.8265C19.4289 22.0427 20.0034 22.0993 20.5576 21.9891C21.1119 21.8788 21.621 21.6067 22.0205 21.2071C22.4201 20.8075 22.6922 20.2984 22.8025 19.7442C22.9127 19.19 22.8561 18.6155 22.6399 18.0934C22.4236 17.5714 22.0574 17.1251 21.5876 16.8112C21.1177 16.4972 20.5653 16.3297 20.0002 16.3297C19.2425 16.3297 18.5157 16.6307 17.9799 17.1665C17.4441 17.7023 17.1431 18.4291 17.1431 19.1868Z" stroke="#032466" stroke-linecap="round" stroke-linejoin="round"/>
</g>
<defs>
<clipPath id="clip0_630_14564">
<rect width="20" height="20" fill="white" transform="translate(10 9.18681)"/>
</clipPath>
</defs>
</svg>
