<svg width="21" height="25" viewBox="0 0 21 25" fill="none" xmlns="http://www.w3.org/2000/svg">
<path d="M14.4978 20.3828C14.072 22.6618 12.2224 24.3828 10.0119 24.3828C7.80151 24.3828 5.95094 22.6618 5.52607 20.3828H14.4978ZM18.0149 9.37081C17.9416 9.37381 17.8693 9.38281 17.7951 9.38281C15.0179 9.38281 12.7589 6.91581 12.7589 3.88281C12.7589 2.97881 12.9631 2.12681 13.3193 1.37381C12.237 0.738813 11.0063 0.382812 9.71525 0.382812C6.14323 0.382812 3.05102 3.09181 2.27637 6.89881L0.124549 14.4958C-0.422104 16.4258 0.899204 18.3818 2.74885 18.3818H17.0845C18.9891 18.3818 20.3159 16.3168 19.6676 14.3608L18.014 9.36881L18.0149 9.37081Z" fill="#032466"/>
<path d="M21 3.88281C21 5.81281 19.5624 7.38281 17.7952 7.38281C16.0279 7.38281 14.5903 5.81281 14.5903 3.88281C14.5903 1.95281 16.0279 0.382812 17.7952 0.382812C19.5624 0.382812 21 1.95281 21 3.88281Z" fill="#F03729"/>
</svg>
