<svg width="42" height="58" viewBox="0 0 42 58" fill="none" xmlns="http://www.w3.org/2000/svg">
<path d="M21.133 41.1469C17.064 41.1469 13.0863 39.9403 9.70302 37.6796C6.31974 35.419 3.68279 32.2059 2.12564 28.4465C0.568484 24.6872 0.161062 20.5506 0.954892 16.5598C1.74872 12.5689 3.70815 8.90307 6.5854 6.02583C9.46264 3.14858 13.1285 1.18915 17.1193 0.395322C21.1102 -0.398508 25.2468 0.00891408 29.0061 1.56607C32.7654 3.12322 35.9786 5.76017 38.2392 9.14345C40.4998 12.5267 41.7064 16.5044 41.7064 20.5734C41.7064 26.0299 39.5389 31.2628 35.6806 35.1211C31.8224 38.9793 26.5894 41.1469 21.133 41.1469Z" fill="#FFEBF0"/>
<path d="M23.6475 16.0126C24.0093 15.8288 24.4201 15.7645 24.8208 15.8287C25.1973 15.8558 25.5599 15.9825 25.8713 16.1958" fill="white"/>
<path d="M20.0764 16.0127C19.7147 15.829 19.3042 15.7646 18.9037 15.8288C18.527 15.8557 18.1642 15.9824 17.8525 16.1959" fill="white"/>
<path d="M31.4629 46.0588L34.4724 54.0953C37.0878 52.8594 39.5216 51.2709 41.7059 49.3743C41.1755 47.8236 40.7164 46.6503 40.7164 46.6503L31.4629 46.0588Z" fill="#DA5742"/>
<path d="M7.82456 54.2516L10.9659 45.8448L1.71233 46.4362C1.70204 46.4465 1.15106 47.8648 0.55957 49.638C2.7583 51.5016 5.20286 53.054 7.82456 54.2516Z" fill="#DA5742"/>
<path d="M31.4629 46.0588L32.5038 48.7931L41.6853 49.3647C41.1858 47.9233 40.7164 46.6503 40.7164 46.6503L31.4629 46.0588Z" fill="#C43D28"/>
<path d="M11.0572 45.549L10.0137 48.2833L0.691406 49.1912C1.1916 47.7632 1.80366 46.1405 1.80366 46.1405L11.0572 45.549Z" fill="#C43D28"/>
<path d="M10.6696 33.4692C6.6295 35.3054 2.20171 40.9779 0.569336 47.6301H7.79254L6.59928 53.6697C11.0499 55.9424 15.977 57.1244 20.9743 57.1184C25.9919 57.1266 30.9385 55.9337 35.4008 53.6395L34.1355 48.4055L41.4404 47.7523C41.4301 47.7523 39.7469 38.3657 32.0441 33.9295C25.8714 30.378 16.3627 30.9084 10.6696 33.4692Z" fill="#3D5CFF"/>
<path d="M9.76312 40.7843L5.46777 47.6301L7.90637 47.6198L9.76312 40.7843Z" fill="#224BF4"/>
<path d="M34.1362 48.4054L36.3092 48.2215L31.4629 39.9272L34.1362 48.4054Z" fill="#224BF4"/>
<path d="M7.88412 47.7316C7.85876 47.7242 7.83712 47.7075 7.82353 47.6849C7.80994 47.6622 7.8054 47.6353 7.81083 47.6094L9.85338 40.0391C9.86076 40.0137 9.87744 39.9921 9.90009 39.9785C9.92274 39.9649 9.94969 39.9603 9.97554 39.9658C10.0005 39.9735 10.0217 39.9904 10.0349 40.013C10.0482 40.0356 10.0524 40.0623 10.0469 40.0879L8.00371 47.6602C7.99806 47.6804 7.98607 47.6982 7.96952 47.7111C7.95296 47.7239 7.93272 47.7311 7.91177 47.7316H7.88412Z" fill="#1F1F39"/>
<path d="M33.9418 48.4054L31.3302 39.9265C31.3261 39.9143 31.3245 39.9014 31.3255 39.8885C31.3265 39.8756 31.3301 39.8631 31.3361 39.8517C31.3422 39.8402 31.3504 39.8301 31.3605 39.822C31.3705 39.8139 31.3821 39.8079 31.3945 39.8044C31.4068 39.8002 31.4197 39.7986 31.4326 39.7996C31.4455 39.8007 31.458 39.8043 31.4694 39.8103C31.4808 39.8163 31.4909 39.8246 31.4991 39.8346C31.5072 39.8447 31.5132 39.8563 31.5167 39.8687L34.1359 48.3437C34.1401 48.3559 34.1417 48.3688 34.1407 48.3817C34.1397 48.3946 34.1361 48.4071 34.13 48.4185C34.124 48.43 34.1157 48.4401 34.1057 48.4482C34.0957 48.4563 34.0841 48.4623 34.0717 48.4658C34.0511 48.4658 34.0408 48.4761 34.0311 48.4761C34.0107 48.4751 33.9911 48.4678 33.9751 48.4551C33.9591 48.4424 33.9474 48.425 33.9418 48.4054Z" fill="#1F1F39"/>
<path d="M13.8291 16.8189C13.8291 16.8189 11.4406 16.8189 10.7977 15.778C10.6195 15.4959 10.5511 15.1582 10.6057 14.829C10.6602 14.4998 10.8338 14.2021 11.0935 13.9926C11.0935 13.9926 9.79861 12.2786 10.4827 10.7073C10.6986 10.1938 11.0833 9.76942 11.5731 9.50418C12.0629 9.23894 12.6285 9.14874 13.1765 9.2485C13.1765 9.2485 11.7987 6.81055 13.4819 4.98402C15.5431 2.73958 18.9911 4.98402 18.9911 4.98402C19.057 4.57501 19.2671 4.20309 19.5834 3.93544C19.8996 3.66779 20.3011 3.52206 20.7154 3.52459C22.205 3.52459 22.205 4.42468 22.205 4.42468C22.6355 3.8926 23.2152 3.50129 23.8696 3.30093C24.5241 3.10058 25.2234 3.10033 25.878 3.30021C29.3164 4.31024 28.7242 8.12596 28.7242 8.12596C28.9261 8.08346 29.1344 8.08185 29.3369 8.12125C29.5394 8.16064 29.7319 8.24023 29.9031 8.35532C30.0743 8.4704 30.2206 8.61864 30.3335 8.79127C30.4464 8.9639 30.5236 9.15741 30.5604 9.36037C30.6949 9.77994 30.6631 10.2351 30.4717 10.632C30.2803 11.0288 29.9438 11.337 29.5317 11.4929C29.5317 11.4929 30.9192 11.2686 31.2676 12.393C31.4152 12.8646 31.4055 13.3715 31.2399 13.8371C31.0743 14.3027 30.7618 14.7018 30.3495 14.9743L29.5407 18.8974L14.1557 19.5301L13.8291 16.8189Z" fill="#1F1F39"/>
<path d="M11.1655 16.4718C9.50481 17.2369 9.32865 19.5424 10.5836 20.9915C11.8386 22.4407 15.0011 22.1038 15.0011 22.1038L14.5421 16.9205C14.5421 16.9205 12.8281 15.7041 11.1655 16.4718Z" fill="#C43D28"/>
<path d="M31.1019 16.4718C32.7652 17.2369 32.9381 19.543 31.6806 20.9915C30.423 22.44 27.2656 22.1038 27.2656 22.1038L28.1124 16.8511C28.5277 16.5193 29.0265 16.3084 29.5539 16.2415C30.0812 16.1746 30.6169 16.2543 31.1019 16.4718Z" fill="#C43D28"/>
<path d="M28.1631 21.0319C28.2387 20.4205 28.4745 19.8398 28.8465 19.3488C29.3374 18.6717 30.0362 18.1736 30.8363 17.9305C30.8526 17.9253 30.8698 17.9235 30.8867 17.9254C30.9037 17.9273 30.9201 17.9328 30.9348 17.9415C30.9495 17.9502 30.9622 17.9619 30.972 17.9758C30.9819 17.9898 30.9887 18.0056 30.9919 18.0224C30.9967 18.0385 30.9981 18.0554 30.996 18.0721C30.9939 18.0888 30.9884 18.1048 30.9797 18.1192C30.9711 18.1336 30.9595 18.146 30.9458 18.1557C30.9321 18.1654 30.9165 18.1721 30.9 18.1754C30.1601 18.4023 29.5122 18.8598 29.051 19.4812C28.7064 19.9339 28.4849 20.4682 28.408 21.0319C28.4075 21.0642 28.3945 21.0949 28.3717 21.1177C28.3489 21.1405 28.3181 21.1536 28.2859 21.1541C28.2535 21.1537 28.2226 21.1408 28.1996 21.118C28.1767 21.0951 28.1636 21.0643 28.1631 21.0319V21.0319Z" fill="#1F1F39"/>
<path d="M14.4205 21.0327C14.3419 20.4694 14.1206 19.9356 13.7776 19.482C13.3207 18.8571 12.6724 18.3985 11.9311 18.1756C11.8993 18.1662 11.872 18.1454 11.8547 18.1171C11.8374 18.0889 11.8311 18.0552 11.8373 18.0225C11.8475 17.9909 11.8688 17.964 11.8973 17.9469C11.9257 17.9298 11.9595 17.9235 11.9922 17.9293C12.7946 18.1684 13.4945 18.6678 13.9814 19.3489C14.3582 19.8376 14.5949 20.4197 14.6661 21.0327C14.6661 21.0652 14.6532 21.0963 14.6302 21.1193C14.6073 21.1423 14.5761 21.1552 14.5436 21.1552C14.5111 21.1552 14.48 21.1423 14.457 21.1193C14.4341 21.0963 14.4212 21.0652 14.4212 21.0327H14.4205Z" fill="#1F1F39"/>
<path d="M17.6653 26.7771L17.2468 32.5724C17.2468 32.5724 17.8254 33.8479 20.9114 33.8479C24.2475 33.8479 25.1656 32.5724 25.1656 32.5724L25.0023 26.869C25.0023 26.869 27.0835 26.5321 28.0832 22.7781C28.6846 20.4718 28.8542 18.0741 28.5834 15.706C28.5834 15.706 23.6644 16.4717 22.0012 14.433C20.3379 12.3943 18.6651 10.3402 16.2477 11.3605C13.8303 12.3808 14.1351 18.9611 14.769 22.0934C15.1672 23.9412 16.1901 25.5953 17.6653 26.7771Z" fill="#DA5742"/>
<path d="M18.7458 18.9612C18.5278 18.9406 18.3265 18.8353 18.1853 18.6678C18.0442 18.5003 17.9744 18.2841 17.9911 18.0656C17.9732 17.8465 18.0424 17.6291 18.1837 17.4606C18.3249 17.2922 18.5269 17.1861 18.7458 17.1656C18.9649 17.186 19.167 17.2919 19.3084 17.4604C19.4499 17.6289 19.5191 17.8464 19.5013 18.0656C19.5179 18.2842 19.448 18.5005 19.3068 18.668C19.1655 18.8355 18.964 18.9408 18.7458 18.9612Z" fill="#1F1F39"/>
<path d="M24.2458 18.9612C24.0278 18.9406 23.8265 18.8353 23.6853 18.6678C23.5442 18.5003 23.4744 18.2841 23.4911 18.0656C23.4732 17.8465 23.5424 17.6291 23.6837 17.4606C23.8249 17.2922 24.0269 17.1861 24.2458 17.1656C24.4649 17.186 24.667 17.2919 24.8084 17.4604C24.9499 17.6289 25.0191 17.8464 25.0013 18.0656C25.0179 18.2842 24.948 18.5005 24.8068 18.668C24.6655 18.8355 24.464 18.9408 24.2458 18.9612Z" fill="#1F1F39"/>
<path d="M20.919 19.2981C21.1762 19.8079 21.8371 19.5552 21.8371 19.5552C21.8371 19.5552 21.1743 19.3791 21.1743 18.8693C21.1634 18.3594 21.1228 16.6145 21.1228 16.6145C21.1228 16.6145 20.6638 18.7876 20.919 19.2981Z" fill="#1F1F39"/>
<path d="M17.4297 31.0005C17.4805 30.9902 22.9492 28.8679 23.9798 27.8991C23.9798 27.3076 24.0003 26.8704 24.0003 26.8704C24.0003 26.8704 22.9999 27.4599 20.58 27.3783C19.5768 27.3826 18.5838 27.1777 17.6644 26.7765C17.6746 27.2966 17.4805 30.7961 17.4297 31.0005Z" fill="#C43D28"/>
<path d="M25.6221 21.1754C24.7265 21.1754 24 20.7183 24 20.1551C24 19.5919 24.7265 19.1348 25.6221 19.1348C26.5177 19.1348 27.2442 19.5912 27.2442 20.1551C27.2442 20.7189 26.5183 21.1754 25.6221 21.1754Z" fill="#C43D28"/>
<path d="M17.042 21.1754C16.1464 21.1754 15.4199 20.7183 15.4199 20.1551C15.4199 19.5919 16.1464 19.1348 17.042 19.1348C17.9376 19.1348 18.6641 19.5913 18.6641 20.1551C18.6641 20.719 17.9382 21.1754 17.042 21.1754Z" fill="#C43D28"/>
<path d="M21.4798 21.4093C21.917 21.2255 22.3285 20.9856 22.7039 20.6956C22.7039 20.6956 22.9077 20.5934 23.0099 20.6956C22.9321 20.9985 22.7921 21.2818 22.5988 21.5277C22.4056 21.7735 22.1633 21.9764 21.8874 22.1236C21.6115 22.2146 21.3136 22.2143 21.0379 22.1225C20.7623 22.0308 20.5235 21.8526 20.3572 21.6144C20.0505 21.2055 20.4594 21.3077 20.4594 21.3077C20.7875 21.4182 21.1363 21.453 21.4798 21.4093Z" fill="white"/>
<path d="M17.601 24.6747C19.1311 25.0829 18.8457 25.7972 19.5092 25.4912C20.1836 25.1845 20.3655 24.5725 21.7157 24.7763C23.0523 24.9801 22.7668 25.6944 23.6239 25.5928C24.4809 25.4912 25.9197 24.4702 26.5813 23.8569C27.2538 23.2461 28.2027 22.2258 28.2027 22.2258C28.2027 22.2258 27.5907 26.5109 24.1832 27.5312C21.6224 28.2962 17.9906 27.9394 16.3679 25.5928C14.7451 23.2461 14.6436 21.9198 14.6436 21.9198C14.6436 21.9198 16.0721 24.2664 17.601 24.6747Z" fill="#1F1F39"/>
<path d="M19.1632 24.165C19.1491 24.1561 19.137 24.1445 19.1278 24.1307C19.1185 24.1169 19.1122 24.1014 19.1093 24.085C19.1064 24.0686 19.1069 24.0519 19.1109 24.0357C19.1148 24.0196 19.1221 24.0045 19.1323 23.9914L19.5406 23.3793C19.5494 23.3652 19.5611 23.3532 19.5748 23.3439C19.5886 23.3346 19.6042 23.3283 19.6205 23.3254C19.6369 23.3225 19.6537 23.323 19.6698 23.327C19.6859 23.331 19.701 23.3383 19.7142 23.3484C19.7282 23.3573 19.7402 23.369 19.7494 23.3828C19.7586 23.3966 19.7649 23.4122 19.7677 23.4285C19.7706 23.4449 19.77 23.4617 19.7659 23.4778C19.7619 23.4939 19.7546 23.5089 19.7444 23.522L19.3361 24.1341C19.3244 24.1495 19.3094 24.1621 19.2921 24.1709C19.2749 24.1797 19.2558 24.1845 19.2365 24.1849C19.2109 24.1833 19.186 24.1765 19.1632 24.165Z" fill="#1F1F39"/>
<path d="M16.9906 23.7354C16.9728 23.7082 16.966 23.6751 16.9716 23.643C16.9773 23.6109 16.9948 23.5821 17.0209 23.5625L17.6336 23.1542C17.6607 23.137 17.6933 23.1305 17.7249 23.1361C17.7566 23.1417 17.785 23.159 17.8046 23.1845C17.8225 23.2119 17.8293 23.2451 17.8236 23.2774C17.8179 23.3096 17.8 23.3385 17.7737 23.358L17.1617 23.7663C17.14 23.7791 17.1155 23.7862 17.0903 23.7869C17.0709 23.7864 17.0518 23.7815 17.0346 23.7726C17.0173 23.7637 17.0023 23.751 16.9906 23.7354Z" fill="#1F1F39"/>
<path d="M21.3574 24.2665V23.756C21.3579 23.7238 21.3709 23.693 21.3938 23.6702C21.4166 23.6474 21.4473 23.6343 21.4796 23.6339C21.5115 23.6354 21.5416 23.6488 21.5642 23.6714C21.5868 23.6939 21.6002 23.7241 21.6017 23.756V24.2665C21.6024 24.2827 21.5996 24.2989 21.5937 24.314C21.5878 24.3291 21.5788 24.3428 21.5674 24.3543C21.5559 24.3657 21.5422 24.3747 21.5271 24.3806C21.512 24.3865 21.4958 24.3893 21.4796 24.3886C21.4473 24.3881 21.4166 24.3751 21.3938 24.3523C21.3709 24.3295 21.3579 24.2987 21.3574 24.2665V24.2665Z" fill="#1F1F39"/>
<path d="M23.2967 24.0017L23.0923 23.4912C23.086 23.4758 23.0828 23.4593 23.083 23.4427C23.0832 23.4261 23.0867 23.4097 23.0934 23.3944C23.1 23.3792 23.1097 23.3654 23.1218 23.354C23.1338 23.3426 23.1481 23.3337 23.1636 23.3279C23.179 23.3216 23.1955 23.3184 23.2121 23.3186C23.2288 23.3188 23.2452 23.3223 23.2604 23.329C23.2756 23.3356 23.2894 23.3453 23.3008 23.3574C23.3122 23.3694 23.3211 23.3837 23.3269 23.3992L23.532 23.9097C23.5383 23.9251 23.5415 23.9416 23.5413 23.9582C23.5411 23.9748 23.5376 23.9912 23.5309 24.0065C23.5243 24.0217 23.5146 24.0355 23.5026 24.0469C23.4905 24.0583 23.4762 24.0672 23.4607 24.073C23.4497 24.0827 23.4395 24.0827 23.4189 24.0827C23.3928 24.0827 23.3673 24.075 23.3456 24.0606C23.3239 24.0462 23.3069 24.0257 23.2967 24.0017Z" fill="#1F1F39"/>
<path d="M25.6003 23.8588L24.8854 23.4506C24.8557 23.434 24.8337 23.4064 24.8244 23.3738C24.815 23.3411 24.8189 23.3061 24.8352 23.2763C24.8517 23.2468 24.8792 23.225 24.9117 23.2156C24.9442 23.2062 24.9791 23.21 25.0088 23.2262L25.7212 23.6344C25.7486 23.6471 25.7707 23.669 25.7836 23.6963C25.7966 23.7236 25.7994 23.7546 25.7918 23.7839C25.7841 23.8131 25.7664 23.8387 25.7417 23.8562C25.717 23.8736 25.687 23.8819 25.6569 23.8794C25.6368 23.8766 25.6175 23.8695 25.6003 23.8588Z" fill="#1F1F39"/>
<g opacity="0.592">
<g opacity="0.592">
<path opacity="0.592" d="M15.4046 38.7341C15.5029 38.7854 15.6104 38.8163 15.7209 38.8251C15.8314 38.8338 15.9425 38.8201 16.0476 38.7849C16.3131 38.7135 16.5883 38.5811 16.8538 38.7206C16.9669 38.7825 17.0563 38.8803 17.108 38.9985C17.1596 39.1167 17.1706 39.2487 17.1392 39.3738C17.1187 39.4657 17.2614 39.5062 17.282 39.4143C17.3103 39.2998 17.3103 39.1802 17.282 39.0658C17.2537 38.9514 17.1979 38.8456 17.1195 38.7575C17.0412 38.6694 16.9425 38.6018 16.8322 38.5604C16.7218 38.519 16.603 38.5051 16.486 38.52C16.2266 38.5998 15.96 38.6545 15.6901 38.6833C15.3944 38.6627 15.3198 38.3965 15.2716 38.1394C15.2694 38.1299 15.2653 38.1209 15.2597 38.113C15.254 38.105 15.2468 38.0983 15.2386 38.0931C15.2303 38.088 15.2211 38.0845 15.2115 38.0829C15.2019 38.0813 15.192 38.0816 15.1825 38.0838C15.173 38.0859 15.164 38.09 15.1561 38.0957C15.1482 38.1013 15.1414 38.1085 15.1363 38.1168C15.1311 38.125 15.1276 38.1342 15.126 38.1438C15.1244 38.1535 15.1247 38.1633 15.1269 38.1728C15.1442 38.3885 15.2436 38.5894 15.4046 38.7341Z" fill="#BFE3C6"/>
<path opacity="0.592" d="M13.9665 43.8043C14.0857 44.0306 14.2706 44.2155 14.4969 44.3347C14.7315 44.4774 14.9765 44.6613 14.9154 44.9673C14.844 45.2939 14.5277 45.4778 14.2622 45.6308C14.2446 45.6416 14.2321 45.659 14.2273 45.6791C14.2226 45.6991 14.226 45.7203 14.2368 45.7379C14.2476 45.7554 14.265 45.768 14.2851 45.7727C14.3051 45.7775 14.3263 45.7741 14.3439 45.7633C14.6259 45.6334 14.861 45.4196 15.017 45.1512C15.0719 45.0369 15.0914 44.9088 15.0729 44.7834C15.0545 44.6579 14.999 44.5408 14.9135 44.4472C14.7296 44.2543 14.4634 44.1617 14.2808 43.9779C14.1676 43.8634 14.0916 43.7173 14.0628 43.5589C14.0341 43.4005 14.0538 43.237 14.1195 43.09C14.142 43.0116 13.987 42.9781 13.9562 43.0598C13.9074 43.1781 13.8831 43.3051 13.8849 43.4331C13.8866 43.5611 13.9144 43.6874 13.9665 43.8043Z" fill="#BFE3C6"/>
<path opacity="0.592" d="M5.98734 41.1419C5.96675 41.0476 5.97528 40.9493 6.01179 40.86C6.0483 40.7707 6.11106 40.6945 6.19179 40.6417C6.57754 40.3967 6.96715 40.7542 7.34454 40.7844C7.69172 40.8153 7.9161 40.5092 8.00739 40.2058C8.05006 40.0532 8.06032 39.8934 8.03751 39.7366C8.0147 39.5798 7.95933 39.4295 7.87495 39.2954C7.86412 39.2778 7.84676 39.2653 7.82669 39.2605C7.80661 39.2558 7.78547 39.2592 7.76791 39.27C7.75034 39.2808 7.7378 39.2982 7.73304 39.3183C7.72828 39.3383 7.73168 39.3595 7.74251 39.377C7.83817 39.5254 7.89074 39.6975 7.89437 39.874C7.89801 40.0505 7.85255 40.2246 7.76308 40.3768C7.72005 40.4724 7.64282 40.5484 7.54657 40.5899C7.45032 40.6314 7.34202 40.6354 7.24296 40.6012C7.06284 40.529 6.87865 40.4674 6.69134 40.4166C6.54122 40.376 6.38188 40.386 6.23799 40.445C6.09411 40.504 5.9737 40.6089 5.8954 40.7432C5.8378 40.8997 5.82034 41.0682 5.84461 41.2332C5.85448 41.4364 5.88529 41.638 5.93655 41.8349C5.95712 41.9269 6.09985 41.8857 6.07928 41.7944C6.02375 41.5811 5.9929 41.3622 5.98734 41.1419Z" fill="#BFE3C6"/>
<path opacity="0.592" d="M11.1507 51.5893C11.193 51.5739 11.2383 51.5686 11.283 51.574C11.3276 51.5794 11.3704 51.5952 11.4079 51.6201C11.5552 51.718 11.6921 51.8309 11.8161 51.957C12.0798 52.1783 12.3991 52.3228 12.7394 52.3749C12.8879 52.3987 13.0399 52.3884 13.1838 52.3448C13.3278 52.3012 13.46 52.2255 13.5703 52.1233C13.6807 52.0211 13.7664 51.8951 13.8209 51.7549C13.8754 51.6148 13.8974 51.464 13.885 51.3141C13.8645 51.2222 13.7217 51.262 13.7423 51.3546C13.7571 51.5317 13.7118 51.7086 13.6137 51.8567C13.5156 52.0049 13.3704 52.1156 13.2016 52.1711C13.0215 52.2241 12.8317 52.236 12.6463 52.206C12.461 52.1759 12.2847 52.1047 12.1305 51.9975C11.9694 51.8932 11.8187 51.7738 11.6805 51.6407C11.5755 51.5333 11.4414 51.4589 11.2947 51.4266C11.0485 51.3951 10.7836 51.6401 10.9057 51.885C10.9463 51.9692 11.0793 51.8953 11.0382 51.8034C10.997 51.7114 11.0793 51.6298 11.1507 51.5893Z" fill="#BFE3C6"/>
<path opacity="0.592" d="M21.5264 49.5892C21.5358 49.7323 21.5797 49.8711 21.6542 49.9936C21.7287 50.1162 21.8318 50.219 21.9546 50.2932C22.2117 50.486 22.5769 50.6603 22.638 51.0074C22.7023 51.3932 22.2522 51.4768 21.9648 51.4459C21.8626 51.4356 21.8729 51.5886 21.9648 51.5989C22.1029 51.6279 22.2463 51.6185 22.3793 51.5717C22.5124 51.5249 22.6301 51.4424 22.7196 51.3334C22.7838 51.2 22.8006 51.0488 22.7673 50.9046C22.734 50.7604 22.6525 50.6318 22.5364 50.54C22.3017 50.3035 21.9648 50.1909 21.7835 49.9055C21.7047 49.7301 21.6847 49.5339 21.7267 49.3463C21.7686 49.1587 21.8702 48.9897 22.0163 48.8646C22.0773 48.8042 21.9648 48.6917 21.9038 48.763C21.6806 48.9826 21.5462 49.2767 21.5264 49.5892V49.5892Z" fill="#BFE3C6"/>
<path opacity="0.592" d="M30.0768 51.3849C30.004 51.5153 29.9684 51.6633 29.9738 51.8126C29.9792 51.9619 30.0255 52.1068 30.1077 52.2316C30.2097 52.3797 30.2824 52.546 30.3217 52.7215C30.3414 52.8925 30.2939 53.0645 30.1893 53.2011C30.1343 53.2695 30.0655 53.3255 29.9874 53.3655C29.9094 53.4056 29.8237 53.4288 29.7361 53.4335C29.6485 53.4383 29.5609 53.4246 29.4789 53.3934C29.3969 53.3621 29.3224 53.3139 29.2603 53.2519C29.2451 53.2385 29.2253 53.2315 29.2051 53.2321C29.1848 53.2328 29.1656 53.2411 29.1513 53.2554C29.137 53.2697 29.1286 53.289 29.128 53.3092C29.1273 53.3295 29.1344 53.3492 29.1478 53.3644C29.2636 53.4721 29.4082 53.5438 29.564 53.5708C29.7197 53.5979 29.88 53.5791 30.0254 53.5168C30.1661 53.4489 30.2838 53.3412 30.3638 53.207C30.4438 53.0728 30.4826 52.9181 30.4754 52.762C30.4548 52.4052 30.1186 52.15 30.1186 51.7828C30.1216 51.6133 30.1881 51.451 30.305 51.3281C30.4219 51.2053 30.5807 51.1308 30.7499 51.1194C30.7702 51.1194 30.7897 51.1113 30.804 51.0969C30.8184 51.0826 30.8264 51.0631 30.8264 51.0428C30.8264 51.0226 30.8184 51.0031 30.804 50.9887C30.7897 50.9744 30.7702 50.9663 30.7499 50.9663C30.6114 50.973 30.4768 51.0149 30.359 51.0881C30.2412 51.1614 30.144 51.2635 30.0768 51.3849Z" fill="#BFE3C6"/>
<path opacity="0.592" d="M25.5768 37.3262C25.7077 37.598 25.8875 37.8434 26.1072 38.0501C26.2293 38.1825 26.3316 38.3767 26.138 38.5001C25.9664 38.5927 25.7709 38.6319 25.5768 38.6126C25.5565 38.6126 25.537 38.6207 25.5227 38.6351C25.5083 38.6494 25.5003 38.6689 25.5003 38.6891C25.5003 38.7094 25.5083 38.7289 25.5227 38.7432C25.537 38.7576 25.5565 38.7657 25.5768 38.7657C25.8339 38.7759 26.2808 38.7252 26.383 38.4493C26.4852 38.1838 26.2197 37.9491 26.0564 37.7762C25.8042 37.5357 25.6574 37.2052 25.6481 36.8568C25.6488 36.7049 25.6962 36.5569 25.7838 36.4328C25.8714 36.3087 25.9951 36.2145 26.138 36.1631C26.1481 36.1604 26.1575 36.1558 26.1658 36.1494C26.174 36.1431 26.1809 36.1352 26.1861 36.1262C26.1913 36.1171 26.1947 36.1072 26.196 36.0969C26.1974 36.0866 26.1967 36.0761 26.194 36.066C26.1913 36.056 26.1866 36.0466 26.1803 36.0383C26.1739 36.0301 26.166 36.0232 26.157 36.018C26.148 36.0128 26.1381 36.0094 26.1277 36.0081C26.1174 36.0067 26.1069 36.0074 26.0969 36.0101C25.974 36.0594 25.8624 36.1332 25.7689 36.2271C25.6755 36.321 25.6022 36.433 25.5535 36.5562C25.5048 36.6793 25.4818 36.8112 25.4858 36.9436C25.4898 37.076 25.5207 37.2061 25.5768 37.3262Z" fill="#BFE3C6"/>
<path opacity="0.592" d="M25.4537 43.2739C25.7598 43.4372 25.8208 43.8146 25.9231 44.1097C25.9607 44.2557 26.0319 44.3908 26.1312 44.5043C26.2305 44.6177 26.3549 44.7063 26.4946 44.7629C26.7948 44.8701 27.1228 44.8701 27.423 44.7629C27.5945 44.685 27.7487 44.5736 27.8765 44.4352C28.0044 44.2969 28.1033 44.1344 28.1675 43.9573C28.208 43.8654 28.055 43.8249 28.0248 43.9168C27.9625 44.0851 27.8646 44.2378 27.7377 44.3647C27.6109 44.4915 27.4581 44.5894 27.2899 44.6517C27.1239 44.7013 26.9484 44.7104 26.778 44.6784C26.6077 44.6465 26.4475 44.5742 26.3107 44.4678C26.0658 44.2434 26.0452 43.8763 25.925 43.5799C25.8773 43.453 25.8006 43.3389 25.701 43.2469C25.6015 43.1548 25.4818 43.0872 25.3515 43.0495C25.2023 43.0123 25.0461 43.0142 24.8978 43.0548C24.7495 43.0954 24.6142 43.1736 24.5048 43.2816C24.4231 43.3736 24.5254 43.4745 24.5967 43.4038C24.7054 43.2909 24.8483 43.217 25.0032 43.1935C25.1581 43.17 25.3165 43.1983 25.4537 43.2739Z" fill="#BFE3C6"/>
<path opacity="0.592" d="M34.8507 40.3864C34.7663 40.6454 34.7688 40.9249 34.8578 41.1824C34.9086 41.4479 34.9221 41.7539 34.654 41.9069C34.5376 41.9645 34.4042 41.9776 34.2788 41.9437C34.1535 41.9099 34.0448 41.8314 33.9732 41.7231C33.9224 41.6414 33.7893 41.7231 33.8407 41.8047C33.9067 41.909 33.9989 41.994 34.1082 42.0513C34.2174 42.1087 34.3398 42.1362 34.4631 42.1313C34.5852 42.1214 34.702 42.0767 34.7997 42.0025C34.8973 41.9283 34.9717 41.8278 35.014 41.7128C35.0589 41.4226 35.0369 41.1259 34.9498 40.8455C34.9182 40.6952 34.9449 40.5385 35.0243 40.407C35.0573 40.3529 35.1068 40.3109 35.1655 40.2871C35.2242 40.2632 35.2889 40.2588 35.3503 40.2746C35.4422 40.2861 35.4834 40.1415 35.3914 40.1113C35.2834 40.0869 35.1702 40.1011 35.0715 40.1513C34.9727 40.2016 34.8947 40.2847 34.8507 40.3864Z" fill="#BFE3C6"/>
</g>
<path opacity="0.592" d="M41.0593 46.3223L41.0699 46.424L33.6317 47.1988L33.6211 47.0972L41.0593 46.3223Z" fill="#BFE3C6"/>
<path opacity="0.592" d="M8.28122 45.9102L8.28342 46.0124L0.919188 46.1707L0.916992 46.0685L8.28122 45.9102Z" fill="#BFE3C6"/>
</g>
</svg>
