<svg width="12" height="14" viewBox="0 0 12 14" fill="none" xmlns="http://www.w3.org/2000/svg">
<path d="M12 2.64766C12.0006 2.14414 11.685 1.71046 11.1959 1.54282L7.3163 0.21502C6.48337 -0.0707966 5.56643 -0.0713787 4.73411 0.211527L0.807721 1.54456C0.316847 1.71105 0 2.14414 0 2.64825C0 3.15294 0.317448 3.58603 0.808321 3.75193L4.71311 5.07332C5.12657 5.21303 5.56163 5.28346 5.9961 5.28346C6.43056 5.28346 6.86503 5.21303 7.27849 5.07332L10.7974 3.8829V6.43197C10.7974 6.7533 11.0663 7.01408 11.3975 7.01408C11.7288 7.01408 11.9976 6.7533 11.9976 6.43197C11.9976 6.43197 12 2.6529 12 2.64766ZM7.67395 6.17293L9.59724 5.52213V5.85044C9.59724 7.77665 7.9824 9.34311 5.9967 9.34311C4.011 9.34311 2.39616 7.77665 2.39616 5.85044V5.52271L4.31825 6.17351C5.39781 6.5385 6.59499 6.5385 7.67395 6.17351V6.17293ZM10.1973 14H1.79607C1.60524 14 1.42581 13.9121 1.313 13.7631C1.20018 13.6141 1.16657 13.422 1.22298 13.245C1.84948 11.2903 3.81237 9.92522 5.9967 9.92522C8.18103 9.92522 10.1439 11.2903 10.7704 13.245C10.8268 13.4214 10.7938 13.6141 10.6804 13.7631C10.567 13.9121 10.3882 14 10.1973 14Z" fill="#6C7278"/>
</svg>
