<svg width="22" height="18" viewBox="0 0 22 18" fill="none" xmlns="http://www.w3.org/2000/svg">
<mask id="path-1-inside-1_653_4135" fill="white">
<path d="M21.6206 13.3803C21.6206 12.1373 21.2484 10.9371 20.5441 9.90944C20.0375 9.17025 19.3852 8.5564 18.6292 8.10024C19.5193 7.25737 20.0761 6.06607 20.0761 4.74639C20.0761 2.19818 18.003 0.125 15.4548 0.125C13.9438 0.125 12.5284 0.872288 11.6686 2.09901C11.4502 2.06719 11.227 2.05002 10.9998 2.05002C10.7726 2.05002 10.5494 2.06724 10.3309 2.09901C9.47114 0.872288 8.05572 0.125 6.54478 0.125C3.99656 0.125 1.92338 2.19818 1.92338 4.74639C1.92338 6.06607 2.48026 7.25737 3.37034 8.10024C2.61433 8.55634 1.96199 9.17025 1.45547 9.90938C0.751182 10.9371 0.378906 12.1373 0.378906 13.3803V15.9508H4.83395V17.8758H17.1657V15.9508H21.6207V13.3803H21.6206ZM15.4548 1.26561C17.3741 1.26561 18.9356 2.82708 18.9356 4.74645C18.9356 6.66583 17.3741 8.22729 15.4548 8.22729C15.4204 8.22729 15.386 8.22678 15.3516 8.22576C15.3542 8.21846 15.3564 8.21099 15.3589 8.20369C15.4184 8.03523 15.4679 7.86221 15.5077 7.68548C15.5105 7.67293 15.5137 7.6605 15.5163 7.6479C15.5267 7.60022 15.5357 7.55209 15.5446 7.50384C15.5487 7.48103 15.553 7.45828 15.5568 7.43541C15.564 7.39236 15.5705 7.34913 15.5765 7.30573C15.5807 7.27556 15.5844 7.2454 15.588 7.21517C15.5925 7.17685 15.5969 7.13847 15.6005 7.09986C15.6042 7.06046 15.6069 7.02099 15.6095 6.98147C15.6116 6.95034 15.6141 6.91931 15.6156 6.888C15.6187 6.82088 15.6205 6.75365 15.6207 6.68636C15.6207 6.68139 15.6211 6.67655 15.6211 6.67153C15.6211 6.66885 15.6209 6.66617 15.6209 6.66349C15.6208 6.59477 15.6188 6.52645 15.6157 6.45836C15.6148 6.43857 15.6136 6.41884 15.6124 6.39911C15.6091 6.34123 15.6047 6.28363 15.5993 6.22631C15.598 6.21331 15.597 6.20031 15.5957 6.18737C15.4233 4.52165 14.371 3.0959 12.8529 2.43644C13.5071 1.70152 14.4533 1.26561 15.4548 1.26561ZM9.7954 3.40539C9.80652 3.40134 9.81776 3.39752 9.82888 3.39353C9.86349 3.38116 9.89839 3.36941 9.93347 3.35806C9.96004 3.34956 9.98679 3.34135 10.0137 3.33348C10.0333 3.32772 10.0529 3.32219 10.0726 3.31671C10.1077 3.30708 10.143 3.29767 10.1786 3.28906C10.4421 3.22507 10.7169 3.19034 10.9997 3.19034C11.2827 3.19057 11.5576 3.22536 11.8211 3.28934C11.8565 3.2979 11.8916 3.30725 11.9265 3.31683C11.9465 3.32236 11.9664 3.32795 11.9862 3.33382C12.0128 3.34164 12.0393 3.34973 12.0656 3.35812C12.1011 3.36958 12.1364 3.38144 12.1714 3.39399C12.1822 3.39781 12.193 3.40146 12.2037 3.40539C13.3678 3.83589 14.2406 4.87191 14.4381 6.1292C14.4397 6.13923 14.4411 6.14933 14.4426 6.15942C14.449 6.20202 14.4543 6.24496 14.459 6.28802C14.4607 6.30387 14.4625 6.31967 14.4641 6.33558C14.4678 6.37487 14.4706 6.41445 14.4731 6.45414C14.4742 6.47113 14.4756 6.48807 14.4764 6.50512C14.4788 6.55582 14.4801 6.6068 14.4803 6.65807C14.4803 6.66252 14.4806 6.66685 14.4806 6.6713C14.4806 6.67335 14.4804 6.67546 14.4804 6.67752C14.4803 6.72713 14.4788 6.7764 14.4767 6.8255C14.476 6.84096 14.4753 6.85641 14.4744 6.87181C14.4717 6.91926 14.4682 6.96647 14.4636 7.01335C14.4618 7.03149 14.4595 7.04956 14.4574 7.06764C14.4539 7.09798 14.45 7.12826 14.4458 7.15837C14.4425 7.18181 14.4392 7.20531 14.4354 7.22863C14.4297 7.26416 14.4233 7.29946 14.4165 7.33464C14.4104 7.36595 14.4037 7.39715 14.3967 7.42828C14.3926 7.44704 14.3882 7.46581 14.3837 7.48446C14.3726 7.5307 14.3604 7.57667 14.3474 7.62246C14.3422 7.64065 14.3374 7.65896 14.3319 7.67698C14.324 7.70321 14.3154 7.72922 14.3069 7.75522C14.3001 7.77604 14.293 7.79674 14.2858 7.81738C14.2776 7.84082 14.2695 7.86432 14.2608 7.88758C14.2461 7.9271 14.2305 7.96628 14.2144 8.00512C14.2072 8.02245 14.1996 8.03962 14.1921 8.0569C14.178 8.08923 14.1635 8.1214 14.1485 8.15322C14.1467 8.15698 14.1449 8.16074 14.1432 8.16451C14.1378 8.1758 14.1324 8.18715 14.1269 8.19844C14.11 8.23288 14.0924 8.26693 14.0744 8.30069C14.0674 8.31381 14.0606 8.32709 14.0534 8.34015C14.053 8.34101 14.0525 8.34181 14.052 8.34261C14.0323 8.37853 14.0117 8.41389 13.9908 8.44902C13.9825 8.46293 13.9743 8.4769 13.9658 8.49065C13.943 8.52766 13.9195 8.56427 13.8954 8.60031C13.8804 8.62272 13.8647 8.64468 13.8492 8.66675C13.836 8.68545 13.8229 8.70422 13.8094 8.72264C13.7919 8.74647 13.774 8.77003 13.7559 8.79346C13.7436 8.80938 13.7312 8.82517 13.7186 8.84091C13.6994 8.86486 13.6801 8.8887 13.6604 8.91214C13.6481 8.92668 13.6355 8.94094 13.623 8.95525C13.6025 8.9788 13.582 9.00241 13.5609 9.02539C13.5484 9.03902 13.5354 9.05214 13.5226 9.0656C13.4883 9.10181 13.4531 9.13723 13.4173 9.17196C13.3961 9.19254 13.3749 9.21319 13.3531 9.2332C13.3381 9.24706 13.3226 9.26052 13.3073 9.27415C13.2823 9.29633 13.2571 9.31829 13.2315 9.33973C13.2185 9.35062 13.2054 9.3614 13.1922 9.37212C13.1613 9.39733 13.1299 9.42202 13.098 9.4462C13.0894 9.45276 13.0808 9.45943 13.0721 9.46593C12.4927 9.89666 11.7755 10.152 10.9997 10.152C10.2238 10.152 9.50656 9.8966 8.92716 9.46576C8.9186 9.45937 8.91022 9.45282 8.90172 9.44637C8.86973 9.42214 8.8382 9.39727 8.80712 9.37195C8.79406 9.36129 8.781 9.35062 8.76811 9.33979C8.74239 9.31823 8.71718 9.29616 8.69209 9.27392C8.67686 9.26035 8.66147 9.247 8.64647 9.2332C8.62463 9.21313 8.60341 9.19243 8.58208 9.17184C8.5461 9.137 8.51091 9.10147 8.47647 9.06514C8.46387 9.05186 8.45098 9.03891 8.4386 9.02545C8.41745 9.00241 8.39697 8.97875 8.37644 8.95519C8.36395 8.94088 8.35141 8.92668 8.33915 8.91214C8.31936 8.8887 8.30008 8.86486 8.28092 8.84097C8.26838 8.82523 8.25589 8.80943 8.24357 8.79346C8.22549 8.77008 8.20764 8.74653 8.19014 8.72269C8.17662 8.70422 8.16345 8.6854 8.15027 8.66664C8.13476 8.64462 8.11914 8.62272 8.10419 8.60037C8.07996 8.56416 8.05641 8.52743 8.03354 8.49031C8.02515 8.47668 8.01706 8.46293 8.00884 8.44919C7.98757 8.41355 7.96676 8.37773 7.94674 8.34129C7.93938 8.32789 7.93243 8.31426 7.92518 8.3008C7.90716 8.26693 7.88954 8.23277 7.87261 8.19827C7.86656 8.18601 7.86069 8.17363 7.85481 8.16131C7.8539 8.15943 7.85304 8.15755 7.85219 8.15567C7.83639 8.12236 7.82128 8.08872 7.80651 8.05479C7.7995 8.03865 7.79237 8.02257 7.78564 8.00637C7.7691 7.96668 7.7533 7.92665 7.73819 7.88627C7.73004 7.86449 7.72251 7.84247 7.71481 7.82052C7.70688 7.79799 7.69924 7.7753 7.69177 7.75254C7.68373 7.72791 7.67563 7.70327 7.6681 7.67852C7.65687 7.64151 7.64626 7.60427 7.63628 7.5668C7.62927 7.54051 7.62294 7.514 7.6165 7.48753C7.61148 7.46672 7.60663 7.4459 7.60201 7.42498C7.59631 7.39931 7.59055 7.37371 7.58541 7.34793C7.57749 7.30778 7.57025 7.26741 7.56374 7.22681C7.56021 7.20491 7.55713 7.18295 7.55399 7.16105C7.54937 7.1286 7.54521 7.09598 7.5415 7.06325C7.53968 7.04711 7.53757 7.03097 7.53591 7.01483C7.53118 6.96676 7.52759 6.91834 7.52485 6.86976C7.52405 6.85578 7.52343 6.84181 7.5228 6.82784C7.52046 6.77589 7.51881 6.72377 7.51881 6.6713C7.51881 6.61507 7.5204 6.55924 7.52308 6.50364C7.52383 6.48853 7.52508 6.47353 7.52594 6.45847C7.52844 6.41673 7.53147 6.3751 7.53546 6.3337C7.53683 6.31927 7.53848 6.3049 7.54002 6.29053C7.54493 6.2457 7.55046 6.20111 7.55707 6.1568C7.55833 6.14819 7.55958 6.13952 7.56095 6.13091C7.75787 4.87288 8.63084 3.83618 9.7954 3.40539ZM3.06393 4.74645C3.06393 2.82713 4.6254 1.26561 6.54478 1.26561C7.54635 1.26561 8.49249 1.70158 9.14666 2.43632C7.62807 3.09602 6.57551 4.52245 6.40369 6.18885C6.40249 6.20014 6.40164 6.21149 6.40055 6.22284C6.39485 6.2822 6.39035 6.3418 6.38692 6.40173C6.3859 6.41998 6.38476 6.43817 6.3839 6.45648C6.38065 6.52782 6.37843 6.59939 6.37843 6.67147C6.37843 6.74424 6.38054 6.81683 6.38396 6.88937C6.38533 6.91857 6.38772 6.94748 6.38961 6.97651C6.3924 7.01826 6.39525 7.06 6.39913 7.10163C6.40255 7.13864 6.40677 7.17542 6.4111 7.21221C6.41487 7.24426 6.41886 7.27619 6.42331 7.30813C6.42912 7.35004 6.4354 7.39179 6.4423 7.43336C6.44646 7.45805 6.45102 7.48269 6.45553 7.50732C6.46408 7.55386 6.47281 7.60028 6.48273 7.6463C6.48604 7.66147 6.4898 7.67652 6.49322 7.69164C6.53195 7.86289 6.58002 8.03055 6.63728 8.19405C6.64092 8.2046 6.64412 8.21526 6.64783 8.22576C6.61344 8.22678 6.57899 8.22729 6.54466 8.22729C4.6254 8.22724 3.06393 6.66577 3.06393 4.74645ZM5.79013 12.0175C5.77759 12.0373 5.76561 12.0574 5.75329 12.0773C5.72723 12.1194 5.7014 12.1616 5.67642 12.2042C5.66245 12.228 5.64899 12.252 5.63542 12.2759C5.61295 12.3154 5.59076 12.3551 5.56921 12.395C5.55563 12.4202 5.54229 12.4454 5.52906 12.4707C5.5083 12.5105 5.48806 12.5504 5.46821 12.5905C5.45572 12.6157 5.44329 12.6409 5.4312 12.6662C5.41101 12.7085 5.39157 12.7511 5.37235 12.7937C5.36191 12.8169 5.35119 12.84 5.3411 12.8633C5.31886 12.9144 5.29764 12.9659 5.27683 13.0175C5.27073 13.0327 5.26422 13.0476 5.25829 13.0627C5.23189 13.1298 5.20663 13.1974 5.18267 13.2653C5.1772 13.2809 5.1723 13.2966 5.16688 13.3122C5.14886 13.3646 5.13129 13.4171 5.1147 13.4698C5.10711 13.4941 5.1001 13.5184 5.0928 13.5427C5.0794 13.5874 5.06622 13.6322 5.05385 13.6772C5.04649 13.704 5.03948 13.7309 5.03246 13.7578C5.02117 13.801 5.01034 13.8444 5.00007 13.8879C4.99351 13.9154 4.98713 13.943 4.98103 13.9706C4.97122 14.0147 4.96204 14.0589 4.9532 14.1032C4.94789 14.1299 4.94242 14.1565 4.93746 14.1832C4.9285 14.2315 4.92046 14.28 4.91265 14.3285C4.909 14.3513 4.90495 14.374 4.90153 14.3968C4.89092 14.4681 4.88128 14.5396 4.87319 14.6114C4.87307 14.6122 4.87302 14.6131 4.87296 14.6139C4.8656 14.6792 4.85927 14.7446 4.85397 14.8103H1.51946V13.3803C1.51946 11.4267 2.64256 9.67277 4.40208 8.83914C5.04307 9.17606 5.77171 9.36785 6.54472 9.36785C6.76827 9.36785 6.9925 9.35131 7.21502 9.31857C7.24969 9.36802 7.28494 9.41695 7.32143 9.46496C7.33375 9.4811 7.34653 9.49684 7.35907 9.51281C7.39511 9.55889 7.43167 9.60445 7.46942 9.64911C7.48488 9.66741 7.50073 9.68532 7.51647 9.70339C7.55183 9.744 7.58775 9.78409 7.62448 9.82338C7.64375 9.84408 7.66337 9.86444 7.68299 9.8848C7.71658 9.91942 7.75062 9.95352 7.78524 9.98711C7.79824 9.99971 7.8105 10.0131 7.82362 10.0255C7.77406 10.0555 7.72496 10.0862 7.67632 10.1175C7.66839 10.1225 7.66063 10.1279 7.65276 10.133C7.60412 10.1646 7.55599 10.1969 7.50831 10.2298C7.49183 10.2412 7.47541 10.2527 7.45898 10.2643C7.4165 10.2942 7.37447 10.3247 7.33278 10.3556C7.31961 10.3654 7.30627 10.375 7.29321 10.3849C7.24017 10.425 7.18776 10.4659 7.13604 10.5076C7.12475 10.5167 7.11368 10.5261 7.10239 10.5354C7.06122 10.5691 7.02044 10.6033 6.98018 10.6381C6.96456 10.6516 6.94905 10.6652 6.93353 10.6788C6.89322 10.7143 6.85341 10.7504 6.814 10.7869C6.80374 10.7964 6.79325 10.8058 6.78304 10.8154C6.73468 10.8609 6.68706 10.9073 6.64013 10.9545C6.62792 10.9667 6.616 10.9792 6.60391 10.9915C6.56799 11.0282 6.53246 11.0653 6.49739 11.1028C6.48347 11.1178 6.46956 11.1327 6.45576 11.1478C6.41629 11.191 6.3774 11.2346 6.33914 11.279C6.33315 11.2859 6.32693 11.2926 6.32094 11.2997C6.27732 11.3506 6.23466 11.4025 6.19257 11.4549C6.18083 11.4695 6.16936 11.4843 6.15779 11.4991C6.12614 11.5393 6.09494 11.5799 6.06426 11.6209C6.0524 11.6367 6.04048 11.6525 6.02879 11.6684C5.98864 11.7232 5.94901 11.7784 5.91052 11.8346C5.86917 11.8949 5.82914 11.956 5.79013 12.0175ZM5.9745 16.7353V15.9509V15.3053C5.9745 15.242 5.9757 15.1789 5.97804 15.116C5.97878 15.0953 5.98043 15.0748 5.98146 15.0542C5.98351 15.0122 5.98545 14.9702 5.98853 14.9284C5.99041 14.903 5.99326 14.8778 5.99554 14.8525C5.99885 14.8157 6.00182 14.7788 6.00592 14.7422C6.00895 14.7154 6.01288 14.6887 6.0163 14.662C6.02075 14.6271 6.02491 14.5922 6.03005 14.5576C6.03421 14.53 6.03923 14.5026 6.04379 14.4751C6.04938 14.4417 6.05457 14.4082 6.06084 14.3749C6.06615 14.3468 6.0723 14.319 6.07806 14.291C6.08468 14.2587 6.09101 14.2263 6.09825 14.1943C6.10464 14.166 6.11194 14.138 6.11878 14.1098C6.12648 14.0784 6.13384 14.0469 6.14211 14.0157C6.14963 13.9874 6.15796 13.9593 6.16594 13.9312C6.17461 13.9006 6.18305 13.8699 6.19229 13.8395C6.2009 13.8112 6.21037 13.7831 6.21944 13.755C6.22913 13.7252 6.23854 13.6953 6.24875 13.6657C6.25844 13.6377 6.26888 13.6099 6.27903 13.5822C6.28975 13.5529 6.30024 13.5234 6.31148 13.4944C6.3222 13.4667 6.3336 13.4394 6.34472 13.4119C6.35642 13.3832 6.36793 13.3544 6.38014 13.3259C6.39194 13.2985 6.40438 13.2713 6.41664 13.2442C6.42924 13.2162 6.44173 13.1881 6.45484 13.1603C6.46768 13.1333 6.48113 13.1065 6.49442 13.0797C6.50799 13.0523 6.5214 13.0248 6.53542 12.9978C6.54928 12.9711 6.56371 12.9447 6.57802 12.9183C6.59251 12.8916 6.60682 12.8648 6.62176 12.8384C6.63659 12.8121 6.65199 12.7863 6.66721 12.7604C6.68261 12.7342 6.6979 12.7081 6.71381 12.6822C6.7296 12.6564 6.74591 12.6311 6.76217 12.6057C6.77848 12.5802 6.79467 12.5547 6.81144 12.5295C6.8282 12.5043 6.84543 12.4794 6.86265 12.4546C6.87981 12.4298 6.89692 12.405 6.91449 12.3804C6.93216 12.3558 6.95036 12.3315 6.96855 12.3072C6.98657 12.283 7.00453 12.2589 7.02295 12.2351C7.04154 12.2111 7.06059 12.1875 7.07964 12.1637C7.09851 12.1402 7.11745 12.1168 7.13672 12.0936C7.15617 12.0704 7.17601 12.0474 7.19586 12.0245C7.21565 12.0016 7.23549 11.9787 7.25574 11.9562C7.27598 11.9336 7.29668 11.9113 7.31733 11.8891C7.33797 11.8669 7.35862 11.8448 7.37966 11.8231C7.40076 11.8012 7.42226 11.7796 7.44382 11.7581C7.46531 11.7366 7.48693 11.7152 7.50883 11.6941C7.53067 11.673 7.55285 11.6523 7.57515 11.6316C7.59751 11.6108 7.61997 11.5901 7.64273 11.5697C7.66542 11.5494 7.68835 11.5294 7.71145 11.5095C7.7346 11.4894 7.75792 11.4695 7.78148 11.4499C7.80491 11.4304 7.82858 11.4112 7.85242 11.3921C7.87643 11.3728 7.90061 11.3537 7.92501 11.3348C7.94914 11.3162 7.97349 11.2979 7.99795 11.2796C8.02282 11.2611 8.04785 11.2428 8.07317 11.2247C8.09792 11.207 8.1229 11.1895 8.14805 11.1722C8.17382 11.1545 8.19972 11.137 8.22583 11.1197C8.25121 11.1029 8.27682 11.0863 8.30254 11.0699C8.32917 11.053 8.35597 11.0363 8.38295 11.0199C8.40895 11.004 8.43512 10.9883 8.46147 10.9729C8.48884 10.9569 8.51645 10.9411 8.54422 10.9256C8.57085 10.9106 8.59765 10.8958 8.62463 10.8814C8.65286 10.8662 8.68131 10.8513 8.70994 10.8366C8.73709 10.8226 8.76434 10.8089 8.79183 10.7954C8.81345 10.7847 8.83529 10.7745 8.85713 10.7642C9.49806 11.1011 10.2268 11.2928 10.9998 11.2928C11.7728 11.2928 12.5015 11.1011 13.1424 10.7642C13.1641 10.7744 13.1857 10.7846 13.2072 10.7951C13.235 10.8088 13.2626 10.8227 13.29 10.8368C13.3183 10.8514 13.3465 10.8661 13.3744 10.8811C13.4017 10.8957 13.4288 10.9107 13.4557 10.9258C13.4831 10.9412 13.5104 10.9567 13.5374 10.9726C13.5642 10.9882 13.5907 11.0041 13.617 11.0202C13.6437 11.0365 13.6701 11.0529 13.6963 11.0696C13.7224 11.0862 13.7483 11.103 13.774 11.12C13.7999 11.1371 13.8255 11.1544 13.8509 11.1719C13.8763 11.1894 13.9016 11.207 13.9266 11.2249C13.9516 11.2429 13.9764 11.261 14.001 11.2793C14.0258 11.2977 14.0503 11.3162 14.0747 11.3351C14.0989 11.3538 14.1228 11.3727 14.1467 11.3918C14.1706 11.411 14.1944 11.4304 14.2181 11.45C14.2415 11.4695 14.2646 11.4893 14.2877 11.5092C14.3109 11.5292 14.334 11.5493 14.3568 11.5698C14.3794 11.59 14.4017 11.6106 14.4239 11.6312C14.4463 11.652 14.4687 11.673 14.4908 11.6943C14.5125 11.7152 14.5339 11.7364 14.5552 11.7577C14.5769 11.7794 14.5985 11.8011 14.6198 11.8231C14.6407 11.8448 14.6613 11.8667 14.6817 11.8887C14.7026 11.9111 14.7234 11.9336 14.7438 11.9563C14.7639 11.9787 14.7836 12.0013 14.8032 12.024C14.8232 12.0471 14.8432 12.0703 14.8628 12.0938C14.882 12.1167 14.9008 12.1401 14.9196 12.1634C14.9387 12.1872 14.9579 12.211 14.9766 12.2352C14.9949 12.2589 15.0128 12.2829 15.0307 12.3069C15.0489 12.3313 15.0672 12.3557 15.085 12.3805C15.1025 12.4048 15.1195 12.4296 15.1366 12.4543C15.1539 12.4793 15.1712 12.5042 15.188 12.5296C15.2047 12.5546 15.2208 12.5799 15.237 12.6052C15.2533 12.6308 15.2698 12.6564 15.2857 12.6823C15.3014 12.7079 15.3166 12.7339 15.3319 12.7598C15.3473 12.7859 15.3628 12.812 15.3777 12.8384C15.3925 12.8647 15.4068 12.8914 15.4212 12.918C15.4356 12.9445 15.4501 12.971 15.4639 12.9977C15.478 13.0247 15.4913 13.0522 15.5049 13.0795C15.5182 13.1063 15.5317 13.1331 15.5445 13.1603C15.5576 13.188 15.5701 13.216 15.5826 13.2439C15.5949 13.2713 15.6074 13.2984 15.6192 13.326C15.6314 13.3542 15.6427 13.3828 15.6544 13.4113C15.6656 13.439 15.6772 13.4666 15.6879 13.4945C15.6991 13.5234 15.7096 13.5527 15.7202 13.5819C15.7304 13.6098 15.7409 13.6376 15.7506 13.6657C15.7608 13.6954 15.7703 13.7254 15.78 13.7554C15.789 13.7834 15.7985 13.8113 15.807 13.8395C15.8163 13.8699 15.8247 13.9006 15.8334 13.9312C15.8414 13.9594 15.8497 13.9874 15.8573 14.0157C15.8655 14.0469 15.8729 14.0784 15.8806 14.1098C15.8875 14.1379 15.8947 14.166 15.9011 14.1943C15.9083 14.2263 15.9146 14.2586 15.9213 14.2909C15.9271 14.3189 15.9332 14.3467 15.9385 14.3749C15.9447 14.4079 15.9499 14.4411 15.9555 14.4743C15.9601 14.5021 15.9652 14.5297 15.9694 14.5576C15.9745 14.592 15.9786 14.6267 15.9831 14.6613C15.9865 14.6882 15.9905 14.715 15.9935 14.7421C15.9977 14.7787 16.0006 14.8156 16.0039 14.8525C16.0062 14.8778 16.0091 14.9029 16.0109 14.9283C16.0141 14.9701 16.016 15.0122 16.018 15.0542C16.019 15.0748 16.0207 15.0953 16.0214 15.116C16.0238 15.1789 16.025 15.242 16.025 15.3053V15.9508V16.7353H5.9745ZM17.1458 14.8103C17.1347 14.6713 17.1186 14.5333 17.0982 14.3961C17.0949 14.3743 17.091 14.3528 17.0876 14.3311C17.0796 14.2814 17.0714 14.2319 17.0622 14.1825C17.0573 14.1565 17.052 14.1306 17.0468 14.1047C17.0379 14.0596 17.0285 14.0146 17.0186 13.9697C17.0125 13.9427 17.0062 13.9157 16.9999 13.8888C16.9894 13.8447 16.9785 13.8009 16.9671 13.7571C16.9602 13.7306 16.9533 13.7042 16.946 13.6777C16.9335 13.6322 16.9201 13.5869 16.9066 13.5417C16.8994 13.5179 16.8925 13.494 16.8851 13.4702C16.8682 13.4166 16.8504 13.3634 16.8321 13.3102C16.827 13.2954 16.8223 13.2804 16.8171 13.2656C16.793 13.1974 16.7678 13.1297 16.7412 13.0623C16.7355 13.0479 16.7293 13.0336 16.7235 13.0192C16.7025 12.9669 16.6809 12.9147 16.6584 12.8629C16.6484 12.84 16.6378 12.8173 16.6276 12.7944C16.6082 12.7513 16.5886 12.7083 16.5682 12.6657C16.5562 12.6407 16.5439 12.6159 16.5317 12.5911C16.5116 12.5506 16.4912 12.5103 16.4702 12.4702C16.4571 12.4451 16.444 12.4201 16.4305 12.3952C16.4088 12.3551 16.3866 12.3153 16.364 12.2756C16.3504 12.2518 16.337 12.2279 16.3232 12.2043C16.2981 12.1615 16.2721 12.1191 16.2459 12.0768C16.2337 12.057 16.2218 12.0371 16.2094 12.0176C16.1703 11.956 16.1303 11.895 16.0889 11.8346C16.0503 11.7783 16.0107 11.7231 15.9706 11.6684C15.9589 11.6525 15.9471 11.6369 15.9353 11.6211C15.9045 11.5799 15.8732 11.5392 15.8414 11.4988C15.8299 11.4843 15.8186 11.4695 15.807 11.4551C15.7648 11.4025 15.722 11.3505 15.6782 11.2995C15.6725 11.2929 15.6667 11.2864 15.661 11.2798C15.6224 11.2352 15.5832 11.1911 15.5434 11.1477C15.5297 11.1327 15.516 11.118 15.5022 11.1031C15.467 11.0653 15.4312 11.028 15.395 10.9911C15.3831 10.979 15.3714 10.9667 15.3594 10.9547C15.3124 10.9075 15.2646 10.8609 15.2161 10.8153C15.2061 10.8059 15.1958 10.7968 15.1858 10.7874C15.1462 10.7506 15.1061 10.7144 15.0657 10.6787C15.0503 10.6652 15.0347 10.6517 15.0192 10.6382C14.9789 10.6034 14.9381 10.5691 14.8969 10.5354C14.8856 10.5262 14.8746 10.5168 14.8633 10.5077C14.8117 10.4659 14.7592 10.4251 14.7063 10.385C14.693 10.3751 14.6796 10.3654 14.6663 10.3555C14.6248 10.3247 14.583 10.2944 14.5407 10.2646C14.5241 10.2529 14.5075 10.2413 14.4908 10.2298C14.4436 10.1972 14.396 10.1653 14.3479 10.134C14.3394 10.1285 14.3311 10.1228 14.3227 10.1174C14.2741 10.0862 14.2252 10.0556 14.1757 10.0257C14.1885 10.0136 14.2004 10.0006 14.213 9.98831C14.2484 9.95409 14.2831 9.9193 14.3173 9.88394C14.3364 9.86421 14.3554 9.84442 14.3741 9.82435C14.4115 9.78443 14.4479 9.74371 14.4838 9.70248C14.4991 9.68497 14.5144 9.66758 14.5294 9.64979C14.5677 9.60451 14.6049 9.55826 14.6414 9.51144C14.6534 9.49616 14.6657 9.4811 14.6774 9.46565C14.7141 9.41746 14.7495 9.3683 14.7843 9.31869C15.0069 9.35136 15.2311 9.3679 15.4546 9.3679C16.2276 9.3679 16.9563 9.17618 17.5973 8.8392C19.3569 9.67283 20.4799 11.4267 20.4799 13.3804V14.8103H17.1458Z"/>
</mask>
<path d="M21.6206 13.3803C21.6206 12.1373 21.2484 10.9371 20.5441 9.90944C20.0375 9.17025 19.3852 8.5564 18.6292 8.10024C19.5193 7.25737 20.0761 6.06607 20.0761 4.74639C20.0761 2.19818 18.003 0.125 15.4548 0.125C13.9438 0.125 12.5284 0.872288 11.6686 2.09901C11.4502 2.06719 11.227 2.05002 10.9998 2.05002C10.7726 2.05002 10.5494 2.06724 10.3309 2.09901C9.47114 0.872288 8.05572 0.125 6.54478 0.125C3.99656 0.125 1.92338 2.19818 1.92338 4.74639C1.92338 6.06607 2.48026 7.25737 3.37034 8.10024C2.61433 8.55634 1.96199 9.17025 1.45547 9.90938C0.751182 10.9371 0.378906 12.1373 0.378906 13.3803V15.9508H4.83395V17.8758H17.1657V15.9508H21.6207V13.3803H21.6206ZM15.4548 1.26561C17.3741 1.26561 18.9356 2.82708 18.9356 4.74645C18.9356 6.66583 17.3741 8.22729 15.4548 8.22729C15.4204 8.22729 15.386 8.22678 15.3516 8.22576C15.3542 8.21846 15.3564 8.21099 15.3589 8.20369C15.4184 8.03523 15.4679 7.86221 15.5077 7.68548C15.5105 7.67293 15.5137 7.6605 15.5163 7.6479C15.5267 7.60022 15.5357 7.55209 15.5446 7.50384C15.5487 7.48103 15.553 7.45828 15.5568 7.43541C15.564 7.39236 15.5705 7.34913 15.5765 7.30573C15.5807 7.27556 15.5844 7.2454 15.588 7.21517C15.5925 7.17685 15.5969 7.13847 15.6005 7.09986C15.6042 7.06046 15.6069 7.02099 15.6095 6.98147C15.6116 6.95034 15.6141 6.91931 15.6156 6.888C15.6187 6.82088 15.6205 6.75365 15.6207 6.68636C15.6207 6.68139 15.6211 6.67655 15.6211 6.67153C15.6211 6.66885 15.6209 6.66617 15.6209 6.66349C15.6208 6.59477 15.6188 6.52645 15.6157 6.45836C15.6148 6.43857 15.6136 6.41884 15.6124 6.39911C15.6091 6.34123 15.6047 6.28363 15.5993 6.22631C15.598 6.21331 15.597 6.20031 15.5957 6.18737C15.4233 4.52165 14.371 3.0959 12.8529 2.43644C13.5071 1.70152 14.4533 1.26561 15.4548 1.26561ZM9.7954 3.40539C9.80652 3.40134 9.81776 3.39752 9.82888 3.39353C9.86349 3.38116 9.89839 3.36941 9.93347 3.35806C9.96004 3.34956 9.98679 3.34135 10.0137 3.33348C10.0333 3.32772 10.0529 3.32219 10.0726 3.31671C10.1077 3.30708 10.143 3.29767 10.1786 3.28906C10.4421 3.22507 10.7169 3.19034 10.9997 3.19034C11.2827 3.19057 11.5576 3.22536 11.8211 3.28934C11.8565 3.2979 11.8916 3.30725 11.9265 3.31683C11.9465 3.32236 11.9664 3.32795 11.9862 3.33382C12.0128 3.34164 12.0393 3.34973 12.0656 3.35812C12.1011 3.36958 12.1364 3.38144 12.1714 3.39399C12.1822 3.39781 12.193 3.40146 12.2037 3.40539C13.3678 3.83589 14.2406 4.87191 14.4381 6.1292C14.4397 6.13923 14.4411 6.14933 14.4426 6.15942C14.449 6.20202 14.4543 6.24496 14.459 6.28802C14.4607 6.30387 14.4625 6.31967 14.4641 6.33558C14.4678 6.37487 14.4706 6.41445 14.4731 6.45414C14.4742 6.47113 14.4756 6.48807 14.4764 6.50512C14.4788 6.55582 14.4801 6.6068 14.4803 6.65807C14.4803 6.66252 14.4806 6.66685 14.4806 6.6713C14.4806 6.67335 14.4804 6.67546 14.4804 6.67752C14.4803 6.72713 14.4788 6.7764 14.4767 6.8255C14.476 6.84096 14.4753 6.85641 14.4744 6.87181C14.4717 6.91926 14.4682 6.96647 14.4636 7.01335C14.4618 7.03149 14.4595 7.04956 14.4574 7.06764C14.4539 7.09798 14.45 7.12826 14.4458 7.15837C14.4425 7.18181 14.4392 7.20531 14.4354 7.22863C14.4297 7.26416 14.4233 7.29946 14.4165 7.33464C14.4104 7.36595 14.4037 7.39715 14.3967 7.42828C14.3926 7.44704 14.3882 7.46581 14.3837 7.48446C14.3726 7.5307 14.3604 7.57667 14.3474 7.62246C14.3422 7.64065 14.3374 7.65896 14.3319 7.67698C14.324 7.70321 14.3154 7.72922 14.3069 7.75522C14.3001 7.77604 14.293 7.79674 14.2858 7.81738C14.2776 7.84082 14.2695 7.86432 14.2608 7.88758C14.2461 7.9271 14.2305 7.96628 14.2144 8.00512C14.2072 8.02245 14.1996 8.03962 14.1921 8.0569C14.178 8.08923 14.1635 8.1214 14.1485 8.15322C14.1467 8.15698 14.1449 8.16074 14.1432 8.16451C14.1378 8.1758 14.1324 8.18715 14.1269 8.19844C14.11 8.23288 14.0924 8.26693 14.0744 8.30069C14.0674 8.31381 14.0606 8.32709 14.0534 8.34015C14.053 8.34101 14.0525 8.34181 14.052 8.34261C14.0323 8.37853 14.0117 8.41389 13.9908 8.44902C13.9825 8.46293 13.9743 8.4769 13.9658 8.49065C13.943 8.52766 13.9195 8.56427 13.8954 8.60031C13.8804 8.62272 13.8647 8.64468 13.8492 8.66675C13.836 8.68545 13.8229 8.70422 13.8094 8.72264C13.7919 8.74647 13.774 8.77003 13.7559 8.79346C13.7436 8.80938 13.7312 8.82517 13.7186 8.84091C13.6994 8.86486 13.6801 8.8887 13.6604 8.91214C13.6481 8.92668 13.6355 8.94094 13.623 8.95525C13.6025 8.9788 13.582 9.00241 13.5609 9.02539C13.5484 9.03902 13.5354 9.05214 13.5226 9.0656C13.4883 9.10181 13.4531 9.13723 13.4173 9.17196C13.3961 9.19254 13.3749 9.21319 13.3531 9.2332C13.3381 9.24706 13.3226 9.26052 13.3073 9.27415C13.2823 9.29633 13.2571 9.31829 13.2315 9.33973C13.2185 9.35062 13.2054 9.3614 13.1922 9.37212C13.1613 9.39733 13.1299 9.42202 13.098 9.4462C13.0894 9.45276 13.0808 9.45943 13.0721 9.46593C12.4927 9.89666 11.7755 10.152 10.9997 10.152C10.2238 10.152 9.50656 9.8966 8.92716 9.46576C8.9186 9.45937 8.91022 9.45282 8.90172 9.44637C8.86973 9.42214 8.8382 9.39727 8.80712 9.37195C8.79406 9.36129 8.781 9.35062 8.76811 9.33979C8.74239 9.31823 8.71718 9.29616 8.69209 9.27392C8.67686 9.26035 8.66147 9.247 8.64647 9.2332C8.62463 9.21313 8.60341 9.19243 8.58208 9.17184C8.5461 9.137 8.51091 9.10147 8.47647 9.06514C8.46387 9.05186 8.45098 9.03891 8.4386 9.02545C8.41745 9.00241 8.39697 8.97875 8.37644 8.95519C8.36395 8.94088 8.35141 8.92668 8.33915 8.91214C8.31936 8.8887 8.30008 8.86486 8.28092 8.84097C8.26838 8.82523 8.25589 8.80943 8.24357 8.79346C8.22549 8.77008 8.20764 8.74653 8.19014 8.72269C8.17662 8.70422 8.16345 8.6854 8.15027 8.66664C8.13476 8.64462 8.11914 8.62272 8.10419 8.60037C8.07996 8.56416 8.05641 8.52743 8.03354 8.49031C8.02515 8.47668 8.01706 8.46293 8.00884 8.44919C7.98757 8.41355 7.96676 8.37773 7.94674 8.34129C7.93938 8.32789 7.93243 8.31426 7.92518 8.3008C7.90716 8.26693 7.88954 8.23277 7.87261 8.19827C7.86656 8.18601 7.86069 8.17363 7.85481 8.16131C7.8539 8.15943 7.85304 8.15755 7.85219 8.15567C7.83639 8.12236 7.82128 8.08872 7.80651 8.05479C7.7995 8.03865 7.79237 8.02257 7.78564 8.00637C7.7691 7.96668 7.7533 7.92665 7.73819 7.88627C7.73004 7.86449 7.72251 7.84247 7.71481 7.82052C7.70688 7.79799 7.69924 7.7753 7.69177 7.75254C7.68373 7.72791 7.67563 7.70327 7.6681 7.67852C7.65687 7.64151 7.64626 7.60427 7.63628 7.5668C7.62927 7.54051 7.62294 7.514 7.6165 7.48753C7.61148 7.46672 7.60663 7.4459 7.60201 7.42498C7.59631 7.39931 7.59055 7.37371 7.58541 7.34793C7.57749 7.30778 7.57025 7.26741 7.56374 7.22681C7.56021 7.20491 7.55713 7.18295 7.55399 7.16105C7.54937 7.1286 7.54521 7.09598 7.5415 7.06325C7.53968 7.04711 7.53757 7.03097 7.53591 7.01483C7.53118 6.96676 7.52759 6.91834 7.52485 6.86976C7.52405 6.85578 7.52343 6.84181 7.5228 6.82784C7.52046 6.77589 7.51881 6.72377 7.51881 6.6713C7.51881 6.61507 7.5204 6.55924 7.52308 6.50364C7.52383 6.48853 7.52508 6.47353 7.52594 6.45847C7.52844 6.41673 7.53147 6.3751 7.53546 6.3337C7.53683 6.31927 7.53848 6.3049 7.54002 6.29053C7.54493 6.2457 7.55046 6.20111 7.55707 6.1568C7.55833 6.14819 7.55958 6.13952 7.56095 6.13091C7.75787 4.87288 8.63084 3.83618 9.7954 3.40539ZM3.06393 4.74645C3.06393 2.82713 4.6254 1.26561 6.54478 1.26561C7.54635 1.26561 8.49249 1.70158 9.14666 2.43632C7.62807 3.09602 6.57551 4.52245 6.40369 6.18885C6.40249 6.20014 6.40164 6.21149 6.40055 6.22284C6.39485 6.2822 6.39035 6.3418 6.38692 6.40173C6.3859 6.41998 6.38476 6.43817 6.3839 6.45648C6.38065 6.52782 6.37843 6.59939 6.37843 6.67147C6.37843 6.74424 6.38054 6.81683 6.38396 6.88937C6.38533 6.91857 6.38772 6.94748 6.38961 6.97651C6.3924 7.01826 6.39525 7.06 6.39913 7.10163C6.40255 7.13864 6.40677 7.17542 6.4111 7.21221C6.41487 7.24426 6.41886 7.27619 6.42331 7.30813C6.42912 7.35004 6.4354 7.39179 6.4423 7.43336C6.44646 7.45805 6.45102 7.48269 6.45553 7.50732C6.46408 7.55386 6.47281 7.60028 6.48273 7.6463C6.48604 7.66147 6.4898 7.67652 6.49322 7.69164C6.53195 7.86289 6.58002 8.03055 6.63728 8.19405C6.64092 8.2046 6.64412 8.21526 6.64783 8.22576C6.61344 8.22678 6.57899 8.22729 6.54466 8.22729C4.6254 8.22724 3.06393 6.66577 3.06393 4.74645ZM5.79013 12.0175C5.77759 12.0373 5.76561 12.0574 5.75329 12.0773C5.72723 12.1194 5.7014 12.1616 5.67642 12.2042C5.66245 12.228 5.64899 12.252 5.63542 12.2759C5.61295 12.3154 5.59076 12.3551 5.56921 12.395C5.55563 12.4202 5.54229 12.4454 5.52906 12.4707C5.5083 12.5105 5.48806 12.5504 5.46821 12.5905C5.45572 12.6157 5.44329 12.6409 5.4312 12.6662C5.41101 12.7085 5.39157 12.7511 5.37235 12.7937C5.36191 12.8169 5.35119 12.84 5.3411 12.8633C5.31886 12.9144 5.29764 12.9659 5.27683 13.0175C5.27073 13.0327 5.26422 13.0476 5.25829 13.0627C5.23189 13.1298 5.20663 13.1974 5.18267 13.2653C5.1772 13.2809 5.1723 13.2966 5.16688 13.3122C5.14886 13.3646 5.13129 13.4171 5.1147 13.4698C5.10711 13.4941 5.1001 13.5184 5.0928 13.5427C5.0794 13.5874 5.06622 13.6322 5.05385 13.6772C5.04649 13.704 5.03948 13.7309 5.03246 13.7578C5.02117 13.801 5.01034 13.8444 5.00007 13.8879C4.99351 13.9154 4.98713 13.943 4.98103 13.9706C4.97122 14.0147 4.96204 14.0589 4.9532 14.1032C4.94789 14.1299 4.94242 14.1565 4.93746 14.1832C4.9285 14.2315 4.92046 14.28 4.91265 14.3285C4.909 14.3513 4.90495 14.374 4.90153 14.3968C4.89092 14.4681 4.88128 14.5396 4.87319 14.6114C4.87307 14.6122 4.87302 14.6131 4.87296 14.6139C4.8656 14.6792 4.85927 14.7446 4.85397 14.8103H1.51946V13.3803C1.51946 11.4267 2.64256 9.67277 4.40208 8.83914C5.04307 9.17606 5.77171 9.36785 6.54472 9.36785C6.76827 9.36785 6.9925 9.35131 7.21502 9.31857C7.24969 9.36802 7.28494 9.41695 7.32143 9.46496C7.33375 9.4811 7.34653 9.49684 7.35907 9.51281C7.39511 9.55889 7.43167 9.60445 7.46942 9.64911C7.48488 9.66741 7.50073 9.68532 7.51647 9.70339C7.55183 9.744 7.58775 9.78409 7.62448 9.82338C7.64375 9.84408 7.66337 9.86444 7.68299 9.8848C7.71658 9.91942 7.75062 9.95352 7.78524 9.98711C7.79824 9.99971 7.8105 10.0131 7.82362 10.0255C7.77406 10.0555 7.72496 10.0862 7.67632 10.1175C7.66839 10.1225 7.66063 10.1279 7.65276 10.133C7.60412 10.1646 7.55599 10.1969 7.50831 10.2298C7.49183 10.2412 7.47541 10.2527 7.45898 10.2643C7.4165 10.2942 7.37447 10.3247 7.33278 10.3556C7.31961 10.3654 7.30627 10.375 7.29321 10.3849C7.24017 10.425 7.18776 10.4659 7.13604 10.5076C7.12475 10.5167 7.11368 10.5261 7.10239 10.5354C7.06122 10.5691 7.02044 10.6033 6.98018 10.6381C6.96456 10.6516 6.94905 10.6652 6.93353 10.6788C6.89322 10.7143 6.85341 10.7504 6.814 10.7869C6.80374 10.7964 6.79325 10.8058 6.78304 10.8154C6.73468 10.8609 6.68706 10.9073 6.64013 10.9545C6.62792 10.9667 6.616 10.9792 6.60391 10.9915C6.56799 11.0282 6.53246 11.0653 6.49739 11.1028C6.48347 11.1178 6.46956 11.1327 6.45576 11.1478C6.41629 11.191 6.3774 11.2346 6.33914 11.279C6.33315 11.2859 6.32693 11.2926 6.32094 11.2997C6.27732 11.3506 6.23466 11.4025 6.19257 11.4549C6.18083 11.4695 6.16936 11.4843 6.15779 11.4991C6.12614 11.5393 6.09494 11.5799 6.06426 11.6209C6.0524 11.6367 6.04048 11.6525 6.02879 11.6684C5.98864 11.7232 5.94901 11.7784 5.91052 11.8346C5.86917 11.8949 5.82914 11.956 5.79013 12.0175ZM5.9745 16.7353V15.9509V15.3053C5.9745 15.242 5.9757 15.1789 5.97804 15.116C5.97878 15.0953 5.98043 15.0748 5.98146 15.0542C5.98351 15.0122 5.98545 14.9702 5.98853 14.9284C5.99041 14.903 5.99326 14.8778 5.99554 14.8525C5.99885 14.8157 6.00182 14.7788 6.00592 14.7422C6.00895 14.7154 6.01288 14.6887 6.0163 14.662C6.02075 14.6271 6.02491 14.5922 6.03005 14.5576C6.03421 14.53 6.03923 14.5026 6.04379 14.4751C6.04938 14.4417 6.05457 14.4082 6.06084 14.3749C6.06615 14.3468 6.0723 14.319 6.07806 14.291C6.08468 14.2587 6.09101 14.2263 6.09825 14.1943C6.10464 14.166 6.11194 14.138 6.11878 14.1098C6.12648 14.0784 6.13384 14.0469 6.14211 14.0157C6.14963 13.9874 6.15796 13.9593 6.16594 13.9312C6.17461 13.9006 6.18305 13.8699 6.19229 13.8395C6.2009 13.8112 6.21037 13.7831 6.21944 13.755C6.22913 13.7252 6.23854 13.6953 6.24875 13.6657C6.25844 13.6377 6.26888 13.6099 6.27903 13.5822C6.28975 13.5529 6.30024 13.5234 6.31148 13.4944C6.3222 13.4667 6.3336 13.4394 6.34472 13.4119C6.35642 13.3832 6.36793 13.3544 6.38014 13.3259C6.39194 13.2985 6.40438 13.2713 6.41664 13.2442C6.42924 13.2162 6.44173 13.1881 6.45484 13.1603C6.46768 13.1333 6.48113 13.1065 6.49442 13.0797C6.50799 13.0523 6.5214 13.0248 6.53542 12.9978C6.54928 12.9711 6.56371 12.9447 6.57802 12.9183C6.59251 12.8916 6.60682 12.8648 6.62176 12.8384C6.63659 12.8121 6.65199 12.7863 6.66721 12.7604C6.68261 12.7342 6.6979 12.7081 6.71381 12.6822C6.7296 12.6564 6.74591 12.6311 6.76217 12.6057C6.77848 12.5802 6.79467 12.5547 6.81144 12.5295C6.8282 12.5043 6.84543 12.4794 6.86265 12.4546C6.87981 12.4298 6.89692 12.405 6.91449 12.3804C6.93216 12.3558 6.95036 12.3315 6.96855 12.3072C6.98657 12.283 7.00453 12.2589 7.02295 12.2351C7.04154 12.2111 7.06059 12.1875 7.07964 12.1637C7.09851 12.1402 7.11745 12.1168 7.13672 12.0936C7.15617 12.0704 7.17601 12.0474 7.19586 12.0245C7.21565 12.0016 7.23549 11.9787 7.25574 11.9562C7.27598 11.9336 7.29668 11.9113 7.31733 11.8891C7.33797 11.8669 7.35862 11.8448 7.37966 11.8231C7.40076 11.8012 7.42226 11.7796 7.44382 11.7581C7.46531 11.7366 7.48693 11.7152 7.50883 11.6941C7.53067 11.673 7.55285 11.6523 7.57515 11.6316C7.59751 11.6108 7.61997 11.5901 7.64273 11.5697C7.66542 11.5494 7.68835 11.5294 7.71145 11.5095C7.7346 11.4894 7.75792 11.4695 7.78148 11.4499C7.80491 11.4304 7.82858 11.4112 7.85242 11.3921C7.87643 11.3728 7.90061 11.3537 7.92501 11.3348C7.94914 11.3162 7.97349 11.2979 7.99795 11.2796C8.02282 11.2611 8.04785 11.2428 8.07317 11.2247C8.09792 11.207 8.1229 11.1895 8.14805 11.1722C8.17382 11.1545 8.19972 11.137 8.22583 11.1197C8.25121 11.1029 8.27682 11.0863 8.30254 11.0699C8.32917 11.053 8.35597 11.0363 8.38295 11.0199C8.40895 11.004 8.43512 10.9883 8.46147 10.9729C8.48884 10.9569 8.51645 10.9411 8.54422 10.9256C8.57085 10.9106 8.59765 10.8958 8.62463 10.8814C8.65286 10.8662 8.68131 10.8513 8.70994 10.8366C8.73709 10.8226 8.76434 10.8089 8.79183 10.7954C8.81345 10.7847 8.83529 10.7745 8.85713 10.7642C9.49806 11.1011 10.2268 11.2928 10.9998 11.2928C11.7728 11.2928 12.5015 11.1011 13.1424 10.7642C13.1641 10.7744 13.1857 10.7846 13.2072 10.7951C13.235 10.8088 13.2626 10.8227 13.29 10.8368C13.3183 10.8514 13.3465 10.8661 13.3744 10.8811C13.4017 10.8957 13.4288 10.9107 13.4557 10.9258C13.4831 10.9412 13.5104 10.9567 13.5374 10.9726C13.5642 10.9882 13.5907 11.0041 13.617 11.0202C13.6437 11.0365 13.6701 11.0529 13.6963 11.0696C13.7224 11.0862 13.7483 11.103 13.774 11.12C13.7999 11.1371 13.8255 11.1544 13.8509 11.1719C13.8763 11.1894 13.9016 11.207 13.9266 11.2249C13.9516 11.2429 13.9764 11.261 14.001 11.2793C14.0258 11.2977 14.0503 11.3162 14.0747 11.3351C14.0989 11.3538 14.1228 11.3727 14.1467 11.3918C14.1706 11.411 14.1944 11.4304 14.2181 11.45C14.2415 11.4695 14.2646 11.4893 14.2877 11.5092C14.3109 11.5292 14.334 11.5493 14.3568 11.5698C14.3794 11.59 14.4017 11.6106 14.4239 11.6312C14.4463 11.652 14.4687 11.673 14.4908 11.6943C14.5125 11.7152 14.5339 11.7364 14.5552 11.7577C14.5769 11.7794 14.5985 11.8011 14.6198 11.8231C14.6407 11.8448 14.6613 11.8667 14.6817 11.8887C14.7026 11.9111 14.7234 11.9336 14.7438 11.9563C14.7639 11.9787 14.7836 12.0013 14.8032 12.024C14.8232 12.0471 14.8432 12.0703 14.8628 12.0938C14.882 12.1167 14.9008 12.1401 14.9196 12.1634C14.9387 12.1872 14.9579 12.211 14.9766 12.2352C14.9949 12.2589 15.0128 12.2829 15.0307 12.3069C15.0489 12.3313 15.0672 12.3557 15.085 12.3805C15.1025 12.4048 15.1195 12.4296 15.1366 12.4543C15.1539 12.4793 15.1712 12.5042 15.188 12.5296C15.2047 12.5546 15.2208 12.5799 15.237 12.6052C15.2533 12.6308 15.2698 12.6564 15.2857 12.6823C15.3014 12.7079 15.3166 12.7339 15.3319 12.7598C15.3473 12.7859 15.3628 12.812 15.3777 12.8384C15.3925 12.8647 15.4068 12.8914 15.4212 12.918C15.4356 12.9445 15.4501 12.971 15.4639 12.9977C15.478 13.0247 15.4913 13.0522 15.5049 13.0795C15.5182 13.1063 15.5317 13.1331 15.5445 13.1603C15.5576 13.188 15.5701 13.216 15.5826 13.2439C15.5949 13.2713 15.6074 13.2984 15.6192 13.326C15.6314 13.3542 15.6427 13.3828 15.6544 13.4113C15.6656 13.439 15.6772 13.4666 15.6879 13.4945C15.6991 13.5234 15.7096 13.5527 15.7202 13.5819C15.7304 13.6098 15.7409 13.6376 15.7506 13.6657C15.7608 13.6954 15.7703 13.7254 15.78 13.7554C15.789 13.7834 15.7985 13.8113 15.807 13.8395C15.8163 13.8699 15.8247 13.9006 15.8334 13.9312C15.8414 13.9594 15.8497 13.9874 15.8573 14.0157C15.8655 14.0469 15.8729 14.0784 15.8806 14.1098C15.8875 14.1379 15.8947 14.166 15.9011 14.1943C15.9083 14.2263 15.9146 14.2586 15.9213 14.2909C15.9271 14.3189 15.9332 14.3467 15.9385 14.3749C15.9447 14.4079 15.9499 14.4411 15.9555 14.4743C15.9601 14.5021 15.9652 14.5297 15.9694 14.5576C15.9745 14.592 15.9786 14.6267 15.9831 14.6613C15.9865 14.6882 15.9905 14.715 15.9935 14.7421C15.9977 14.7787 16.0006 14.8156 16.0039 14.8525C16.0062 14.8778 16.0091 14.9029 16.0109 14.9283C16.0141 14.9701 16.016 15.0122 16.018 15.0542C16.019 15.0748 16.0207 15.0953 16.0214 15.116C16.0238 15.1789 16.025 15.242 16.025 15.3053V15.9508V16.7353H5.9745ZM17.1458 14.8103C17.1347 14.6713 17.1186 14.5333 17.0982 14.3961C17.0949 14.3743 17.091 14.3528 17.0876 14.3311C17.0796 14.2814 17.0714 14.2319 17.0622 14.1825C17.0573 14.1565 17.052 14.1306 17.0468 14.1047C17.0379 14.0596 17.0285 14.0146 17.0186 13.9697C17.0125 13.9427 17.0062 13.9157 16.9999 13.8888C16.9894 13.8447 16.9785 13.8009 16.9671 13.7571C16.9602 13.7306 16.9533 13.7042 16.946 13.6777C16.9335 13.6322 16.9201 13.5869 16.9066 13.5417C16.8994 13.5179 16.8925 13.494 16.8851 13.4702C16.8682 13.4166 16.8504 13.3634 16.8321 13.3102C16.827 13.2954 16.8223 13.2804 16.8171 13.2656C16.793 13.1974 16.7678 13.1297 16.7412 13.0623C16.7355 13.0479 16.7293 13.0336 16.7235 13.0192C16.7025 12.9669 16.6809 12.9147 16.6584 12.8629C16.6484 12.84 16.6378 12.8173 16.6276 12.7944C16.6082 12.7513 16.5886 12.7083 16.5682 12.6657C16.5562 12.6407 16.5439 12.6159 16.5317 12.5911C16.5116 12.5506 16.4912 12.5103 16.4702 12.4702C16.4571 12.4451 16.444 12.4201 16.4305 12.3952C16.4088 12.3551 16.3866 12.3153 16.364 12.2756C16.3504 12.2518 16.337 12.2279 16.3232 12.2043C16.2981 12.1615 16.2721 12.1191 16.2459 12.0768C16.2337 12.057 16.2218 12.0371 16.2094 12.0176C16.1703 11.956 16.1303 11.895 16.0889 11.8346C16.0503 11.7783 16.0107 11.7231 15.9706 11.6684C15.9589 11.6525 15.9471 11.6369 15.9353 11.6211C15.9045 11.5799 15.8732 11.5392 15.8414 11.4988C15.8299 11.4843 15.8186 11.4695 15.807 11.4551C15.7648 11.4025 15.722 11.3505 15.6782 11.2995C15.6725 11.2929 15.6667 11.2864 15.661 11.2798C15.6224 11.2352 15.5832 11.1911 15.5434 11.1477C15.5297 11.1327 15.516 11.118 15.5022 11.1031C15.467 11.0653 15.4312 11.028 15.395 10.9911C15.3831 10.979 15.3714 10.9667 15.3594 10.9547C15.3124 10.9075 15.2646 10.8609 15.2161 10.8153C15.2061 10.8059 15.1958 10.7968 15.1858 10.7874C15.1462 10.7506 15.1061 10.7144 15.0657 10.6787C15.0503 10.6652 15.0347 10.6517 15.0192 10.6382C14.9789 10.6034 14.9381 10.5691 14.8969 10.5354C14.8856 10.5262 14.8746 10.5168 14.8633 10.5077C14.8117 10.4659 14.7592 10.4251 14.7063 10.385C14.693 10.3751 14.6796 10.3654 14.6663 10.3555C14.6248 10.3247 14.583 10.2944 14.5407 10.2646C14.5241 10.2529 14.5075 10.2413 14.4908 10.2298C14.4436 10.1972 14.396 10.1653 14.3479 10.134C14.3394 10.1285 14.3311 10.1228 14.3227 10.1174C14.2741 10.0862 14.2252 10.0556 14.1757 10.0257C14.1885 10.0136 14.2004 10.0006 14.213 9.98831C14.2484 9.95409 14.2831 9.9193 14.3173 9.88394C14.3364 9.86421 14.3554 9.84442 14.3741 9.82435C14.4115 9.78443 14.4479 9.74371 14.4838 9.70248C14.4991 9.68497 14.5144 9.66758 14.5294 9.64979C14.5677 9.60451 14.6049 9.55826 14.6414 9.51144C14.6534 9.49616 14.6657 9.4811 14.6774 9.46565C14.7141 9.41746 14.7495 9.3683 14.7843 9.31869C15.0069 9.35136 15.2311 9.3679 15.4546 9.3679C16.2276 9.3679 16.9563 9.17618 17.5973 8.8392C19.3569 9.67283 20.4799 11.4267 20.4799 13.3804V14.8103H17.1458Z" fill="#032466" stroke="white" stroke-width="0.2" mask="url(#path-1-inside-1_653_4135)"/>
</svg>
