<svg width="14" height="14" viewBox="0 0 14 14" fill="none" xmlns="http://www.w3.org/2000/svg">
<path d="M11.0833 2.91659H10.4417C10.3063 2.25824 9.94806 1.6667 9.4274 1.24167C8.90673 0.816638 8.25545 0.5841 7.58333 0.583252L6.41667 0.583252C5.74455 0.5841 5.09327 0.816638 4.5726 1.24167C4.05194 1.6667 3.69372 2.25824 3.55833 2.91659H2.91667C2.1434 2.91751 1.40208 3.2251 0.855295 3.77188C0.308514 4.31866 0.00092625 5.05999 0 5.83325L0 7.58325H14V5.83325C13.9991 5.05999 13.6915 4.31866 13.1447 3.77188C12.5979 3.2251 11.8566 2.91751 11.0833 2.91659ZM4.774 2.91659C4.89422 2.57656 5.11655 2.28197 5.41059 2.07314C5.70463 1.8643 6.05601 1.75141 6.41667 1.74992H7.58333C7.94398 1.75141 8.29537 1.8643 8.58941 2.07314C8.88345 2.28197 9.10578 2.57656 9.226 2.91659H4.774Z" fill="#6C7278"/>
<path d="M7.58333 8.60406C7.58333 8.74588 7.52187 8.88188 7.41248 8.98216C7.30308 9.08244 7.15471 9.13878 7 9.13878C6.84529 9.13878 6.69692 9.08244 6.58752 8.98216C6.47812 8.88188 6.41667 8.74588 6.41667 8.60406V8.06934H0V10.7429C0.00092625 11.4518 0.308514 12.1313 0.855295 12.6325C1.40208 13.1338 2.1434 13.4157 2.91667 13.4166H11.0833C11.8566 13.4157 12.5979 13.1338 13.1447 12.6325C13.6915 12.1313 13.9991 11.4518 14 10.7429V8.06934H7.58333V8.60406Z" fill="#6C7278"/>
</svg>
